/* XPM */
static char *_5aa50ee59db4aba828087eb0a32d485fqiwbyTKAsJ1MN9o[] = {
/* columns rows colors chars-per-pixel */
"64 64 147 2 ",
"   c #4E1500",
".  c #531700",
"X  c #551B02",
"o  c #591E04",
"O  c #5C2106",
"+  c #5D240B",
"@  c #5F2710",
"#  c #61260D",
"$  c #63290E",
"%  c #692A0E",
"&  c #652C13",
"*  c #6A2E14",
"=  c #672F18",
"-  c #6D2F18",
";  c #702F19",
":  c #663016",
">  c #6C3116",
",  c #663119",
"<  c #6D331A",
"1  c #703317",
"2  c #71361C",
"3  c #73391E",
"4  c #6F3720",
"5  c #6E3820",
"6  c #743A22",
"7  c #793D24",
"8  c #7F3E28",
"9  c #7B4126",
"0  c #7D442B",
"q  c #7D4630",
"w  c #7C4830",
"e  c #81462D",
"r  c #84492E",
"t  c #864D35",
"y  c #854C33",
"u  c #884C30",
"i  c #894E30",
"p  c #884C32",
"a  c #894D33",
"s  c #884F32",
"d  c #8C4F33",
"f  c #894D35",
"g  c #884F34",
"h  c #8A4E34",
"j  c #8B4F35",
"k  c #884E36",
"l  c #894F37",
"z  c #8A4E36",
"x  c #8A4E35",
"c  c #874F38",
"v  c #874F38",
"b  c #8C4F38",
"n  c #904F39",
"m  c #875136",
"M  c #895035",
"N  c #8B5235",
"B  c #895136",
"V  c #885037",
"C  c #8A5136",
"Z  c #8B5237",
"A  c #8D5135",
"S  c #8E5135",
"D  c #8C5036",
"F  c #8D5137",
"G  c #8F5236",
"H  c #8C5136",
"J  c #875139",
"K  c #8A5038",
"L  c #8B5139",
"P  c #8B5338",
"I  c #8A5239",
"U  c #8B533A",
"Y  c #8C5338",
"T  c #8E5238",
"R  c #8F5339",
"E  c #8C523A",
"W  c #8D533B",
"Q  c #8E523A",
"!  c #8F533B",
"~  c #8D5439",
"^  c #8F5639",
"/  c #8D553A",
"(  c #8C543B",
")  c #8E553A",
"_  c #8F563B",
"`  c #8C543D",
"'  c #8E543C",
"]  c #8F553D",
"[  c #8E563D",
"{  c #8D533A",
"}  c #8E583D",
"|  c #905034",
" . c #915135",
".. c #915237",
"X. c #925538",
"o. c #925539",
"O. c #90543A",
"+. c #91553B",
"@. c #90543C",
"#. c #91553D",
"$. c #90573C",
"%. c #92563C",
"&. c #93573D",
"*. c #90563E",
"=. c #91573F",
"-. c #92563E",
";. c #93573F",
":. c #91553C",
">. c #94593B",
",. c #91583D",
"<. c #92593C",
"1. c #92593E",
"2. c #925A3F",
"3. c #935A3F",
"4. c #95593D",
"5. c #94583E",
"6. c #95593F",
"7. c #94593E",
"8. c #98583D",
"9. c #8F5740",
"0. c #935640",
"q. c #925840",
"w. c #935941",
"e. c #925A41",
"r. c #955941",
"t. c #945B40",
"y. c #965A40",
"u. c #945A42",
"i. c #955B43",
"p. c #955C41",
"a. c #965D42",
"s. c #975E43",
"d. c #975D45",
"f. c #955D46",
"g. c #945A41",
"h. c #995B42",
"j. c #995D43",
"k. c #9A5E42",
"l. c #995D45",
"z. c #995D43",
"x. c #996045",
"c. c #9A6146",
"v. c #9D634B",
"b. c #9F664B",
"n. c #9D634A",
"m. c #A1654D",
"M. c #A5694F",
/* pixels */
",.) ,.,.^ <.} c.<.) N <.9 <.) P b f 0.0.0.9.f b f.7 l.0.e.0.f.) h.>.^ <.P ^ w ,.9.e.0.' 0.d.h.h.y.,.,.y.3.x.<.<.x.n.M.6.6.O.h.y ",
"M g s y r N m r M y r e : s r r y y k y y q q y y & v v f y b t N s i N r w 3 e q t t y f f u g t 0 9 9 e r m s m ~ $.s d r p 1 ",
"r m y e r m m 9 m M M e : i m r t f t e 0 y t t e & b v g y g M u u r i r w 3 9 q y 0 y f e 8 e y w 9 9 e s M M r ^ N r j p p 1 ",
"2 3 < > > : 2 > & : : % O : : & # = # = & & & & = o = & = # = = 1 > > > > : & , < = = # < - * - : & $ $ : > $ $ $ 3 > * * - - + ",
"P P ) M m 3 m ) ^ N ~ <.M X.m N v f 7 v E b k b 0.b 0.b v b b 9 r i r r P r y m y y y 4 e r g y ~ P ~ ~ ~ N M m 3 $.&.:.O.$.&.O.",
"^ ^ ^ ~ M $ r <.^ r e m M m e M t 0 & y y 0 q t 0 y t e q y 0 * r r r r ^ e w 0 q q q = 8 r N r e r s s e w r s # y O.o...O.O.O.",
"P P P M M : r / ^ m i r M N e ~ k t = k 0 y t k q t y t y y 0 2 e r r r ~ w r 0 q 0 q = e 0 s e m N M s r s s N > ) ..o.O.6.N #.",
"& > > & >   2 > & $ : $ & & $ & # = o 4 # # & # & & # & # @ # + % % # # > O : @ & + & o = # * & & & : * : & $ $ X 3 * & & - % & ",
"$.) p.N t.<.<.<.^ <.t.t.3 P M ) ' b [ b E E P ' :.4 f.[ ' ' y.&. .X.| >.T y.6 P t v J J T [ M M P 9.t 7 0.9.P b ,.q.:.0.T :.r.0 ",
"y ) ,.) m ) ) ~ } ^ ) ) 3 m y m g t P b t v v b g = b b :.' [ j | | | X.g ) < y t v t t t m M P v P q 5 b E ' 9.P [ ' 0.#.#.#.7 ",
"r ) N ) r ) M P ) ~ M M 3 N M y b t t t t v t k t < P b 9.b [ b | X.| X.g T < y t v m t m m M M t b y 6 y v v 0.b ' T ' #.0.b 7 ",
"> > $ : : $ & & > : > > O > : $ = * + & # & & & & + 2 = & = < * % % % % = < O = @ = & @ $ & & $ @ & # + & & & & & = * * * = - o ",
"n.^ ^ ) x.9 P <.<.,.p.p.<.c.3.3.d.0.0 [ 0.d.e.[ 0.[ v.0.' 0.[ e >.X. .>.>.6.T d.9.9.P m t J ~ M P 9.[ [ ' ' P E 8 ' #.#.b #.0.#.",
",.M ,.M ^ : m ,.) ) ,.<.,.x.,.<.#.b 4 b P e.0.' 9.0.0.P [ 0.t * >. . .X...X.[ 0.9.9.y 0 9 y m y v P v P t b b E = y f f b f #.b ",
"M ) ,.P ) > P ^ P P ^ P } t.^ <.#.' 4 v t ' ' b :.[ E [ 0.' p 3 X.|  .>.$.N :.' 9.` m 0 9 w M m t t y b y b b ' * t f f b g T b ",
"> 3 : > 2 O 3 : > < 2 : < < > 3 2 6 . = # # * & = = = < * # & & % % % 1 > * < & = , : @ @ : : $ & & + = @ & & & o < - * = * < - ",
") M o.h.y.h.$.&.&.h.&.&.3 O.&.O.O...8.$.T E ` e.9.5 f.E E t &.y.>.>.>. .X.<.3 ^ ) <.,.,.0.q.[ b P [ y r l.k.&.h.h.h.8.h.&.&.y.y ",
"p N &.$.j O.O.&.N O.O.j 1 j N ....| ..d T T v J J = v v ' m O.j | X. .X.X.~ > e M t M P ' b g b t m 9 9 T o.O.&.:.8.n 8.&.&.T 9 ",
"s O.&.j j N &.O.N O.| j 6 O.O.j  .| | $.9.v E E E , t v [ b T g | .. . .<.M > e M y t ) :.b f b m m 9 9 j $.O.&.:.h.n n 6.:.) 9 ",
"1 - * & - % - & - * - & o 1 * - * 1 % 1 & & = 5 , + 5 , = & * * 1 % > % > * O : * : * * = * & & @ : + + - 1 - ; % 3 ; * > > > # ",
"k.&.$.&.6.e j o.:.$.&.&.T h.:.O.o. .e o.b P [ q.9.9.v.9.P P T e o.8.o. .8.<.~ 3.) 3.<.y t #.0.' N } } <.<.,.O.n 8 :.o.O.:.$.&.O.",
"O.j O.O.N - r O.j j O.O.O.&.j T o.i ; r y T P t v E E v v T r - o. .o...>.~ ~ <.) 3.M 9 7 t 0.T ^ ^ <.^ T N j N % u n | $.O.O...",
"j O.O.....- p O...j O...:.:.j #.o...1 g g ) P t b b t b b P y 6 X.8.6.X.8.X.} ^ <.3.) 0 8 b :.b } ^ <.} :.:.&.T - T :.n &.$.O.T ",
"1 1 - & 3 o 1 & > * < * < > * 1 * 1 . 1 & & = < < = & = = # & & 1 % 1 * 3 : 3 2 2 3 3 $ # * - * > : > 2 2 2 1 * o 7 3 - 1 > > - ",
"0.j O.&.&.y.O.O.O.&.:.O.3 &.&.&.6.&.h.6.6.:.6.k.0.6 y.g E t 9.e.| | X.i X...7 N y ~ ~ ~ ,.6.#.b b 0.f 7 9.0.[ [ h.0.#.0.n #.h.e ",
"p p &.#.j O.:.O.g j j h - d j ..N j ..N ..O.N N ) > y y E v J v h d | e i u 1 r M m r M :.T g n b v e 4 t t P E T T b ' b #.n 8 ",
"p N &.O.T O.&.| N O.O.j 3 j N O.' T T :.o.$.....&.3 t t 9.v J v n | | r i r 6 y ) P y ) y.O.g #.b T r 6 t g b E b ' b T n n #.8 ",
"1 - * - - * 1 & - - 1 - o 1 - - = < * 2 * * > 2 1 # 4 & = = , = - * * % > > + < > > : & < < * = & = & # * = = = & = * = - - ; # ",
"h.O.O.O.O.9 O.O.$...$.O.j h.$.O.' ' 0 ) d N ..o.&.&.l.T [ 9.9.q &. .X...>.8.<.h.) p.) r g 0.0.#.#.0.#.#.0.0.P P 0 ' #.0.0.:.r.n ",
"T s N T p & r $.j p j j O.&.j j ' g * y u N d u u j j r v E q = j d s d S N ) ) M ) r 3 7 b 0.#.b n b b t P t t = y b ' n b n n ",
"j g O...j * | o.O.O.#...&.&.T &.0.[ < M d ..N d d ..y p E J q 4 | | i ..M ~ ^ M M $.y 6 8 b n b b b g #.y g t J < y b b n n n n ",
"- * - * 2 o 3 - 1 < 3 - 1 < * 3 < 6 o 4 & % > 1 1 1 & < < = & = * & % > > > 3 : : > & + # * & # * - # 2 # = = = X < - & - * ; ; ",
"$.N | >.$. .&.&.g O.b 0.6 #.:.#.:.o.&.O.,.) M } 9.6 0.P y b 0.l.:.:.T [ b q.6 e.P P P } q.q.#.#.#.' T 0 E E 9.E e.e.0.q.E [ d.e ",
"u ..>.8...$.0.O.&.0.n #.2 f #.#.n o.&.$.6.} P t.9.< t ' P ' [ :.n :.E 0.t ` , w J J m J P [ #.#.#.b y 7 y b ' b b v E :.E E b 7 ",
"r ..>.>.o...h.N :.h.0.b 2 e b b n o.N O.$.N P <.} < y P 9.v b b n O.b 0.J J < w J m J t P T ' O.b t 0 4 r b P b v b v ' T T v 4 ",
"3 3 2 3 3 > 0 1 1 7 6 7 # 2 2 6 3 3 - 2 3 2 < 6 6 + 4 4 4 2 2 4 6 3 2 4 < 3 @ 3 & & = = = = = * < 4 = & 4 4 < < < 7 < 4 4 4 4 & ",
"m.>.d X.N 3 o.O.b :.$.&.b 0.&.#.8.n 8 | ) ) M M 9.m t.P P P b 9 ' b b ' J / J t.` [ E v f b #.#.f ' b ' P b t g 8 t v b b b E v ",
"| X.>.8...* ..&.:.:.O.O.#.&.&.&.8.n 3 b ) ,.P P } J } J 0.9.y = T b P ' / / J } v v y 9 8 e f b t E f g t v q b = y t t P b P v ",
"g $.>.6.O.- O.#.O.O.O.j o.O.O.O.#.O.1 j T [ T P T P E v q.[ y < f f g ' M t P m E E k 7 7 y z z t b y f y t y b < y y t b v b t ",
"1 3 1 1 3 o 7 1 1 7 7 3 7 3 3 7 7 7 o 3 1 6 < 2 4 6 6 4 6 < < & * & * < < = 5 < = < 4 & & = ; - = 4 = 4 - 4 = 2 + 5 < = < < < < ",
":.f O.j h.&.&.&.$.j &.j < &.u d j j j j O.j r j v 2 ' ' 0 t P q.' 0.n 0.b e.7 9.v t P t 0.z h z y y 0 q t b t y b P b v t r b 7 ",
"r g &.&.O.&.O.O.6.&.h...- j r u r j N p p p r p b - y ' t v w t y p f b y b = 0 0 w y 0 b e e e t 0 7 7 0 q y y 0 y t f t t k 4 ",
"r 0.#.0.j &.O.j o.o.8.N 1 r e u e g g p r p r e t = 0 9.t J w t t b f T t T < 0 0 0 y 8 f r e y t y 0 8 0 y t b y t e r t r y < ",
"8 7 4 6 3 2 7 3 3 3 3 2 # 1 > 1 * 1 - > 1 1 - ; - + < 7 < < < < < - * - = 5 + < < < < @ 4 - ; ; * # * = = & * = = < = = - = = @ ",
"l.#.#.b &.7 b O...O.o.o.S 3.X.<.,.) 7 T #.O.j :.0.#.h.0.m J t 0 r.0.T #.' d.' e.E E T 0 b b :.#.' 0.d.f.d.e.0.0.7 k b b b b 0.' ",
"#.b 0.b h.* j &.$.$.o.6.>.8.<.X.x.) < T &.O.n h.:.:.0.b ` } t < b b f b b b b b [ 9.T 8 g T h.&.b 0.0.0.0.' ' [ = y P 9.9.' 0.' ",
"g b :.#.:.- j &.) $.S ..>.X.~ X.,.) < g b b j | f b g J P [ t 5 n n O.0.b b :.P E 9.' 8 f b 0.O.0.0.9.[ ' ' 9.0.4 t b P b g v t ",
"2 6 - 2 3 # 6 2 1 3 1 1 3 > 3 3 3 6 X 1 < 2 1 1 2 6 < < < < * # - < 1 1 < - 6 < < 6 4 # * 2 6 ; < < 4 2 5 < < < o 4 - = 2 < < < ",
"b j O.#.&.h.:.$.&.h.:.6.6 O.&.N 8. .8. .o.8.$.X.3.2 <.} :.O.h.h.X.>.$.8.$.p.6 ' $.~ <.~ k.$. .$.:.f.g e ' 0.T 0.#.h.h.d.#.0.h.r ",
"p j 0.o.O.y.&.&.j O.b T 1 y | j  . .8.o.$.>.) <.P > ) M O.p j h ..| S X.s T < t ~ ~ ~ M >.S ....:.q.y 7 t P b [ ' :.b n n b n e ",
"r j &.O.T O.0.O.O.8.:.#.3 p O.#. . . .X...X.$.<.P 3 ) P O.g n h X.X.N $.g $.4 f ) ) ,.M 8.$.o.$.:.0.t 0 b ' T y.0.0.h #.0.n n y ",
"1 3 6 1 3 1 7 1 < 3 1 1 o - 2 1 3 3 % 2 2 3 3 1 < O < > - - 2 * > > * 1 < 1 @ - < < 1 * 2 1 1 1 < 2 = = 4 2 = < = 2 ; 2 ; - - % ",
"&.:.O.O.O.8 b O.&.6.&.&.O.&.8.&.8. .8 d j $.) y } J ,.,.,.[ ' r X.o.O.8.0.0.9.f.,.0.[ r b O.&.o.T :.0.e.f.d.0.0.0 y.h.0.r.r.h.0.",
"&.&.6.o.O.> g &.N n j O.O.&.O.O.&...2 i s T M y s r ) M g t e < d i g N v v t b P P t < 8 r O.j g b b P P b T ' - ' #.b 0.0.0.n ",
"b O.O.j N 1 p | O.O.N O.:.j j O.d | 1 d r s t r r P m M b b y 6 h d j b 9.t b v f 9.t 4 e f O.n ' v b ' b b E 0.< ' #.b 0.#.0.0.",
"2 1 < - 7 o 3 & & & & & * % # * * 1 . 2 * - * * : 1 & : = < < + % & * - = & 4 = & - = + * 1 2 * - * < 5 < = < 5 o 4 2 - 4 - - 2 ",
"T b b 0.b #.#.h.8.0.#.h.7 b 0.b 6.) $.O.&.$.' #.d.4 t P m ` J t.#.O.#.#.' r.7 9.b 9.e.v 0.#.:.8.0.v y y g ' [ J 0.' b ' v b ' 9 ",
"t b b f b #.#.b #.&.z b 2 t b #.S M ..g j O.T #.g < y t w m y J h h b h f v 4 8 t t ' v 0.f p | b y 7 8 e t t b v b t g y t v 7 ",
"y f b r g ' #.r b O.f f 2 e g #.y ~ ) y p O.#.b f 4 0 t y t w J p u h f t t 4 8 t y M M 0.u u d b y y y t t b E b P v J t t v 9 ",
"= 2 2 - 2 - 4 - & * * * o & # * & > $ = & - - * - + & = @ @ @ : * % % # & = o = & & & + < & % & * & = < 2 = = < & < = < = = , + ",
"b b b b b 7 g b #.0.#.h.n r.0.#.,.P 0 [ #.0.#.0.0.#.r.0.` ` w w >.X.>.N 9.0.9.d.[ ,.) 0 N >.8.o.y.0.l.m.v.f.y.l.w J P P P P } J ",
"f f f f b - f #.f f t g b #.b b M w > P b f f b h b E E ` J w 9 S N X.X.' P ' b m ^ y 3 e N 8...0.#.0.y.0.[ [ q.> 9 0 e y w m m ",
"e y r r f * f b f b b f T b b v J t = ' b b 9.v b 0.v v } ` w 3 X.S >.X.<.~ q.P ^ ^ S 3 r i o...#.#.#.' [ [ } } < w w w m w t m ",
"# - - * 2 . 4 - 2 2 4 < 7 2 - < < < X 2 - 4 4 ; ; 6 = = 2 5 , O 1 1 3 > 3 < 9 < 1 3 1 # > * 2 1 < 2 2 2 6 6 6 3 X > : : , @ & @ "
};
