/* XPM */
static char *_603963945340[] = {
/* columns rows colors chars-per-pixel */
"64 64 105 2 ",
"   c #1E1D1E",
".  c #1F1D1E",
"X  c #1E1E1E",
"o  c #1F1E1F",
"O  c #1E271E",
"+  c #1E2A1E",
"@  c #1E2B1E",
"#  c #1F351F",
"$  c #342318",
"%  c #36281F",
"&  c #3E2A1D",
"*  c #232222",
"=  c #242324",
"-  c #252324",
";  c #262526",
":  c #282728",
">  c #2C2B2B",
",  c #2C2B2C",
"<  c #253225",
"1  c #253325",
"2  c #303A30",
"3  c #393839",
"4  c #582D0F",
"5  c #5D2E0D",
"6  c #5C340E",
"7  c #593A0F",
"8  c #4F2B11",
"9  c #593216",
"0  c #50331F",
"q  c #602F0D",
"w  c #69340E",
"e  c #73390F",
"r  c #74390F",
"t  c #6A3612",
"y  c #653817",
"u  c #7F3F11",
"i  c #693E20",
"p  c #376D1B",
"a  c #2E7B1E",
"s  c #3D781D",
"d  c #205B20",
"f  c #206020",
"g  c #216721",
"h  c #276E27",
"j  c #217621",
"k  c #217721",
"l  c #217C21",
"z  c #277C27",
"x  c #4D4012",
"c  c #4B4E14",
"v  c #544211",
"b  c #504712",
"n  c #475415",
"m  c #465515",
"M  c #515019",
"N  c #5A5F18",
"B  c #6B4512",
"V  c #635215",
"C  c #526B1B",
"Z  c #4D413A",
"A  c #744523",
"S  c #7F4B27",
"D  c #734E34",
"F  c #4D4B4C",
"G  c #4E4D4E",
"H  c #565556",
"J  c #5E5D5E",
"K  c #416E41",
"L  c SaddleBrown",
"P  c #936C50",
"I  c #90725D",
"U  c #8C7566",
"Y  c #9E7C65",
"T  c #228422",
"R  c #248A21",
"E  c #228D22",
"W  c #288B28",
"Q  c #288C28",
"!  c #269B26",
"~  c #3A9023",
"^  c #329C26",
"/  c #2AA929",
"(  c #29AA29",
")  c #2DBB2D",
"_  c #3EAF3D",
"`  c #428320",
"'  c LimeGreen",
"]  c #4AA449",
"[  c #50B350",
"{  c #948377",
"}  c #A88D7B",
"|  c #8F8D8E",
" . c #8F8E8E",
".. c #9D918A",
"X. c #989797",
"o. c #B39E90",
"O. c #ACAAAB",
"+. c #AEACAC",
"@. c #AFAEAE",
"#. c #C0BEBE",
"$. c #C1BFBF",
"%. c #D2CFCF",
"&. c #D3D1D1",
"*. c #E8E6E6",
"=. c #FEFCFC",
/* pixels */
"E ( ( E ( ( ( E ( ( E ( ( ( E ( ( E ( ( ( E ( ( E ( ( ( E ( ( ! ! ( ( E ( ( ( E ( ( E ( ( ( E ( ( E ( ( ( E ( ( E ( ( ( E ( ( E ",
"( ' ' ( ' ' ' ( ' ' ( ' ' ' ( ' ' ( ' ' ' ( ' ' ( ' ' ' ( ' ' ) ) ' ' ( ' ' ' ( ' ' ( ' ' ' ( ' ' ( ' ' ' ( ' ' ( ' ' ' ( ' ' ( ",
"( ' ' ( ' ' ' ( ' ' ( ' ' ' ( ' ' ( ' ' ' ( ' ' ( ' ' ' ( ' ' ) ) ' ' ( ' ' ' ( ' ' ( ' ' ' ( ' ' ( ' ' ' ( ' ' ( ' ' ' ( ' ' ( ",
"E ( ( E ( ( ( E ( ( E ( ( ( E ( ( E ( ( ( E ( ( E ` ` ` p ` ` C s ` ` p ` ` ` E ( ( E ( ( ( E ( ( E ( ( ( E ( ( E ( ( ( E ( ( E ",
"( ' ' ( ' ' ' ( ' ' ( ' ' ' ( ' ' ( ' ' ' ( ' ' ( L L L e L L u u L L e L L L ( ' ' ( ' ' ' ( ' ' ( ' ' ' ( ' ' ( ' ' ' ( ' ' ( ",
"( ' ' ( ' ' ' ( ' ' ( ' ' ' ( ' ' ( ' ' ' ( ' ' ( L L L e L L L u L L e L L L ( ' ' ( ' ' ' ( ' ' ( ' ' ' ( ' ' ( ' ' ' ( ' ' ( ",
"( ' ' ( ' ' ' ( ' ' ( ' ' ' ( ' ' ( ' ' ' ( ' ' ( L L L e L L B u L L r L L L ( ' ' ( ' ' ' ( ' ' ( ' ' ' ( ' ' ( ' ' ' ( ' ' ( ",
"E ( ( E ( ( ( E ( ( E ( ( ( E ( ( E ( ( ( m B B 7 r r r q e e t w e r 6 e e t 7 B B m ( ( ( E ( ( E ( ( ( E ( ( E ( ( ( E ( ( E ",
"( ' ' ( ' ' ' ( ' ' ( ' ' ' ( ' ' ( ' ' ' N L L e L L L e L L u u L L e L L L e L L N ' ' ' / ' ' ( ' ' ' ( ' ' ( ' ' ' ( ' ' ( ",
"( ' ' ( ' ' ' ( ' ' ( ' ' ' ( ' ' ( ' ' ' N L L e L L L e L L u u L L e L L L e L L N ' ' ' / ' ' ( ' ' ' ( ' ' ( ' ' ' ( ' ' ( ",
"E ( ( E ( ( ( E ( ( E ( ( ( E ( ( E ~ ~ ~ x e e q e e e q e e w w e e q e e e q e e b ~ ~ ~ R / ( E ( ( ( E ( ( E ( ( ( E ( ( E ",
"( ' ' ( ' ' ' ( ' ' ( ' ' ' ( ' ' ^ L L L e L L e L L L e L L u u L L e L L L e L L e L L L ^ ' ' ( ' ' ' ( ' ' ( ' ' ' ( ' ' ( ",
"( ' ' ( ' ' ' ( ' ' ( ' ' ' ( ' ' ^ L L L e L L e L L L e L L u u L L e L L L e L L e L L L ^ ' ' ( ' ' ' ( ' ' ( ' ' ' ( ' ' ( ",
"( ' ' ( ' ' ' ( ' ' ( ' ' ' ( ' ' ^ L L L e L L e L L L e L L u u L L e L L L e L L e L L L ^ ' ' ( ' ' ' ( ' ' ( ' ' ' ( ' ' ( ",
"E ( ( E ( ( ( E ( ( E ( ( ( n V V 7 e e e q e e q e e e q e e w w e e q e e e q e e q e e e v V V m ( ( ( E ( ( E ( ( ( E ( ( E ",
"( ' ' ( ' ' ' ( ' ' ( ' ' ' V L L e L L L e L L e L L L e L L u u L L e L L L e L L e L L L e L L V ' ' ' ( ' ' ( ' ' ' ( ' ' ( ",
"( ' ' ( ' ' ' ( ' ' ( ' ' ' N L L e L L L r L L e L L L e L L u B L L e L L L r L L e L L L e L L V ' ' ' / ' ' ( ' ' ' ( ' ' ( ",
"E ( ( E ( ( ( E ( ( R ^ ^ ^ 7 t t 4 t t t 5 r r q e e e q e e w e e e q e e r 5 e e 5 t t t 4 y w x ^ ^ ^ R ( ( R ( ( ( E ( ( E ",
"( ' ' ( ' ' ' ( ' ' ~ L L L % , : - : , , 9 L L e L L L e L L u u L L e L L L e L L 9 , > > = , > % L L L ~ ' ' ( ' ' ' ( ' ' ( ",
"( ' ' ( ' ' ' ( ' ' ~ L L L % > , - , , , 9 L L e L L L e L L u u L L e L L L e L L 9 , , > = , , % L L L ~ ' ' ( ' ' ' ( ' ' ( ",
"( ' ' ( ' ' ' ( ' ' ~ L L L % > , = , , , 9 L L r L L L e L L u u L L r L L L e L L 9 , , , * , , % L L L ~ ' ' ( ' ' ' ( ' ' ( ",
"E ( ( E ( ( ( n N N b e e e 8 9 9 0 X.X.X.Z & & $ r e e q e e w w r r q e e e $ & & Z X.X.X.0 9 9 8 e e r c N N n ( ( ( E ( ( E ",
"( ' ' ( ' ' ' B L L e L L L e L L S =.=.=.J , , = L L L e L L u u L L r L L L = , , J =.=.=.S L L e L L L r L L B ' ' ' ( ' ' ( ",
"( ' ' ( ' ' ' B L L e L L L e L L S =.=.=.J , , = L L L e L L u u L L r L L L = , , J =.=.=.S L L e L L L r L L B ' ' ' ( ' ' ( ",
"E ( ( E / ( ( 7 r r q r e e q e e i &.&.&.G = = o r e e q e e w w r r q e e e . = = G &.&.&.A t e q e e e q e e 7 ( ( ( E ( ( E ",
"( ' ' ( ' ' ' B L L e L L L e L L S =.=.=.J , , = L L L e L L u u L L r L L L * , , J =.=.=.S L L e L L L e L L B ' ' ' ( ' ' ( ",
"( ' ' ( ' ' ' B L L e L L L e L L S =.=.=.J , , = L L L e L L u u L L r L L L - , , J =.=.=.S L L e L L L e L L B ' ' ' ( ' ' ( ",
"( ' ' ( ' ' ' B L L e L L L e L L S =.=.=.J , , = L L L e L L u u L L r L L L - , , J =.=.=.S L L e L L L e L L B ' ' ' ( ' ' ( ",
"E ( ( a C C C 5 e e q e e e q e e i &.&.&.G = = o } } } D r e w w r r D } } } . = = G &.&.&.i r e q e e e 5 e e 6 C C C a ( ( E ",
"( ' ' ` L L L r L L e L L L e L L S =.=.=.J , , ; =.=.=.Y L L u u L L Y =.=.=.= , , J =.=.=.L L L e L L L e L L e L L L ` ' ' ( ",
"( ' ' ` L L L r L L e L L L e L L S =.=.=.J , , ; =.=.=.Y L L u u L L Y =.=.=.= , , J =.=.=.L L L r L L L e L L e L L L ` ' ' ( ",
"! ) ) s B L u w u u w u u u w u u A *.*.*.H : : = *.*.*.I u u r r u u I *.*.*.= : : H *.*.*.i u u w L B u w u u w u u u s ) ) ! ",
"! ) ) s u u u w u u w u u u w A B D *.*.*.$.*.*.#.*.*.*.I u u r r u u I *.*.*.$.*.*.#.*.*.*.A u u w u u u w u u w u u u s ) ) ! ",
"/ ' ' ` L L L e L L r L L L r L L L =.=.=.%.=.=.%.=.=.=.Y L L u u L L Y =.=.=.&.=.=.&.=.=.=.S L L e L L L e L L e L L L ` ' ' ( ",
"/ ' ' ` L L L e L L r L L L e L L L =.=.=.%.=.=.%.=.=.=.Y L L u u L L Y =.=.=.&.=.=.&.=.=.=.S L L e L L L e L L e L L L ` ' ' ( ",
"E / / p e e e q r r q r r r q e e i } } } U } } U } } } D r r w w e e D } } } U } } U } } } y e e q e e e q e e q e e e p ( ( R ",
"( ' ' ` L L L e L L r L L L e L L e L L L e L L r L L L r L L u u L L e L L L e L L e L L L e L L e L L L e L L e L L L ` ' ' ( ",
"( ' ' ` L L L e L L r L L L e L L e L L L e L L r L L L r L L u u L L e L L L e L L e L L L e L L e L L L e L L e L L L ` ' ' ( ",
"( ' ' ` L L L e L L r L L L e L L e L L L e L L r L L L r L L A u L L e L L L e L L e L L L e L L e L L L e L L e L L L ` ' ' ( ",
"E ( ( E / / / 7 e e q e e e 5 e e 5 e e e { %.%.+.%.%.%.O.%.%.#.#.%.%.+.%.%.&.+.%.&.{ e e e q e e q e e e q e e 7 / ( ( E ( ( E ",
"( ' ' ( ' ' ' B L L e L L L e L L e L L L o.=.=.&.=.=.=.&.=.=.*.*.=.=.&.=.=.=.&.=.=.o.L L L e L L e L L L e L L B ' ' ' ( ' ' ( ",
"( ' ' ( ' ' ' B L L e L L L e L L e L L L o.=.=.&.=.=.=.&.=.=.*.*.=.=.&.=.=.=.&.=.=.o.L L L e L L e L L L e L L B ' ' ' ( ' ' ( ",
"E ( ( E ( ( ( m N N c N N N c N N M P P P ..&.&.@.&.&.&.@.&.&.#.$.&.&.+.&.&.&.@.&.&...P P P M N N c N N N c N N n ( ( ( E ( ( E ",
"( ' ' ( ' ' ' ( ' ' ( ' ' ' ( ' ' _ =.=.=.&.=.=.&.=.=.=.&.=.=.*.*.=.=.&.=.=.=.&.=.=.&.=.=.=._ ' ' ( ' ' ' ( ' ' ( ' ' ' ( ' ' ( ",
"( ' ' ( ' ' ' ( ' ' ( ' ' ' ( ' ' _ =.=.=.&.=.=.&.=.=.=.&.=.=.*.*.=.=.&.=.=.=.&.=.=.&.=.=.=._ ' ' ( ' ' ' ( ' ' ( ' ' ' ( ' ' ( ",
"( ' ' ( ' ' ' ( ' ' ( ' ' ' ( ' ' _ =.=.=.&.=.=.&.=.=.=.&.=.=.*.*.=.=.&.=.=.=.&.=.=.&.=.=.=._ ' ' ( ' ' ' ( ' ' ( ' ' ' ( ' ' ( ",
"E ( ( E ( ( ( E ( ( k 1 < 1 + < < 2 &.&.&.@.&.&.@.&.&.&.@.&.&.#.$.&.&.@.&.&.&.@.&.&.@.&.&.&.2 < < @ < < < j ( ( E ( ( ( E ( ( E ",
"( ' ' ( ' ' ' ( ' ' W , , , = , , 3 =.=.=.&.=.=.&.=.=.=.&.=.=.*.*.=.=.&.=.=.=.&.=.=.&.=.=.=.3 , , = , , , W ' ' ( ' ' ' ( ' ' ( ",
"( ' ' ( ' ' ' ( ' ' W , , , = , , 3 =.=.=.&.=.=.&.=.=.=.&.=.=.*.*.=.=.&.=.=.=.&.=.=.&.=.=.=.3 , , = , , , W ' ' ( ' ' ' ( ' ' ( ",
"E ( ( E / / / a W E f = = =   = = , O.O.O.| O.O.| &.&.&.@.&.&.#.%.&.&.@.&.&.&. .O.O.| O.O.O.> = = o = = = f W Q k ( ( ( E ( ( E ",
"( ' ' ( ' ' ' < , , = , , , = , , = , , , = , , ; =.=.=.&.=.=.*.*.=.=.&.=.=.=.; , , = , , , = , , = , , , = , , < ' ' ' ( ' ' ( ",
"( ' ' ( ' ' ' < , , = , , , = , , = , , , = , , ; =.=.=.&.=.=.*.*.=.=.&.=.=.=.= , , = , , , = , , = , , , = , , < ' ' ' ( ' ' ( ",
"( ' ' ( ' ' ' < , , = , , , = , , = , , , = , , ; =.=.=.&.=.=.*.*.=.=.%.=.=.=.= , , = , , , = , , = , , , = , , < ' ' ' ( ' ' ( ",
"E ( ( E ( ( / O = =   = = =   = =   = = =   = =   F F F K [ [ ] ] ] [ h F F F   = =   = = = o = = o = = = o = = @ ( ( ( E ( ( E ",
"( ' ' ( ' ' ' < , , = , , , = , , = , , , = , , = , , , h ' ' ) ) ' ' h , , , = , , = , , , = , , = , , , = , , < ' ' ' ( ' ' ( ",
"( ' ' ( ' ' ' # , , = , , , = , , = , , , = , , = , , , h ' ' ) ) ' ' h , , , = , , = , , , = , , = , , , = , , < ' ' ' ( ' ' ( ",
"E ( ( E ( ( ( # < < O = = =   = =   = = =   = =   = = ; d ( ( ! ^ ( ( d : ; ;   = = o = = = o * * o = = = O < < # ( ( ( E ( ( E ",
"( ' ' ( ' ' ' ( ' ' W , , , = , , = , , , = , , = , , , h ' ' ) ) ' ' h , , , ; , , = , , , = , , = , , , W ' ' ( ' ' ' ( ' ' ( ",
"( ' ' ( ' ' ' ( ' ' W , , , = , , = , , , = , , = , , , h ' ' ) ) ' ' h , , , = , , = , , , = , , = , , , W ' ' ( ' ' ' ( ' ' ( ",
"( ' ' ( ' ' ' ( ' ' W , , , = , , = , , , = , , = , , , h ' ' ) ) ' ' h , , , = , , = , , , = , , = , , , W ' ' ( ' ' ' ( ' ' ( ",
"E ( ( E ( ( ( E ( ( T z z z g z z g z z z g z z g z z z l ( ( ! ! ( ( l z z z f z z g z z z g z z g z z z T ( ( E ( ( ( E ( ( E ",
"( ' ' ( ' ' ' ( ' ' ( ' ' ' ( ' ' ( ' ' ' ( ' ' ( ' ' ' ( ' ' ) ) ' ' ( ' ' ' ( ' ' ( ' ' ' ( ' ' ( ' ' ' ( ' ' ( ' ' ' ( ' ' ( ",
"( ' ' ( ' ' ' ( ' ' ( ' ' ' ( ' ' ( ' ' ' ( ' ' ( ' ' ' ( ' ' ) ) ' ' ( ' ' ' ( ' ' ( ' ' ' ( ' ' ( ' ' ' ( ' ' ( ' ' ' ( ' ' ( ",
"E ( ( E ( ( ( E ( ( E ( ( ( E ( ( E ( ( ( E ( ( E ( ( ( E ( ( ! ! ( ( E ( ( ( E ( ( E ( ( ( E ( ( E ( ( ( E ( ( E ( ( ( E ( ( E "
};
