/* XPM */
static char *_02528bfa3aa49f9867fc30a8eaf36f7MEKSyfV5pIb1NcoN[] = {
/* columns rows colors chars-per-pixel */
"64 64 79 1 ",
"  c #2F1E08",
". c #301E08",
"X c #322008",
"o c #332008",
"O c #332109",
"+ c #342109",
"@ c #352209",
"# c #372309",
"$ c #382309",
"% c #3B250A",
"& c #3C260A",
"* c #3D260A",
"= c #3E280B",
"- c #40290B",
"; c #422B0D",
": c #463521",
"> c #473621",
", c #483721",
"< c #4E3A23",
"1 c #553F24",
"2 c #6A4414",
"3 c #6B4414",
"4 c #6B4415",
"5 c #6C4515",
"6 c #6D4515",
"7 c #6E4716",
"8 c #704816",
"9 c #714817",
"0 c #714917",
"q c #724916",
"w c #734916",
"e c #734A16",
"r c #744A17",
"t c #744B17",
"y c #754B17",
"u c #784E18",
"i c #7D5019",
"p c #7E5119",
"a c #5C4E3E",
"s c #5F513E",
"d c #7A572C",
"f c #7B572C",
"g c #695740",
"h c #885A20",
"j c #895A20",
"k c #8B5C22",
"l c #8B5D22",
"z c #8D5D21",
"x c #8C5D22",
"c c #8F5F22",
"v c #805B2D",
"b c #815B2D",
"n c #905F22",
"m c #8B622F",
"M c #906022",
"N c #946122",
"B c #946223",
"V c #966323",
"C c #9A6523",
"Z c #A76D23",
"A c #AA6E23",
"S c #AA6F23",
"D c #AC7024",
"F c #B37425",
"G c #B37526",
"H c #B47626",
"J c #B57626",
"K c #B67626",
"L c #B67726",
"P c #B87827",
"I c #B97827",
"U c #B27C38",
"Y c #B47D39",
"T c #BF843B",
"R c #BF843C",
"E c #C0853C",
"W c #C59455",
"Q c #C79555",
"! c #CD9F66",
/* pixels */
"!QQQQQQQQQQQQQQQQQQQQQQQQQQQgssssssaWQQQQQQQQQQQQQQQQQQQQQQQQQQ!",
"TPPPPPPPPPPPPPPPPPPPPPPPPPPP-++++++ LLIIPPPPPPPPPPPPPPPPPPPPPPIE",
"TPPPPPPPPPPPPPPPPPPPPPPPPPPP-++++++ LPPPPPPPPPPPPPPPPPPPPPPPPPPR",
"TPPPPPPPPPPPPPPPPPPPPPPPPPPP-++++++ LPPPPPPPPPPPPPPPPPPPPPPPPPLR",
"mpppNNVVVVVVVVVVVVVVVVCNPPPP;X+++++.upppVVVVVVCNVVVVVVVVVVNCPPPE",
"d554jxxxxxxxxxxxxxxxxxxxPPPP-+++++++3553xxxxxxlxxxxxxxxxxxxnPPPT",
"d554jxxxxxxxxxxxxxxxxxxxPPPP-+++++++3553jxxxxxxxxxxxxxxxxxxnPPPT",
"d554jlxxxxxxxxxxxxxxxxxxPPPP-++++++.3553lxxxxxxxxxxxxxxxxxxnPPPT",
"d554jxxxxxxxxxxxxxxxxxxxPPPP-+++++++3443lxxxxxxxxxxxxxxxxxxnPPPE",
"d554hxxxxxxxxxxxxxxxxxxxPPPP-+++++++3553lxxxxxxxxxxxxxxxxxxnPPPE",
"d554hlxxxxxxxxxxxxxxxxxxPPPP-++++++.3553lxxxxxxxxxxxxxxxxxxnPPPT",
"d544jxxxxxxxxxxxxxxxxxxxPPPP-+++++++3553lxxxxxxxxxxxxxxxxxxMPPPT",
"d554hlxxxxxxxxxxxxxxxxxxPPPP-+++++++3353lxxxxxxxxxxxxxxxxxxnPPPT",
"d554jxxxxxxxxxxxxxxxxxxxPPPP-+++++++3353lxxxxxxxxxxxxxxxxxxnPPPT",
"d554hlxxxxxxxxxxxxxxxxxxPPPP-++++++.3353jxxxxxxxxxxxxxxxxxxnPPPT",
"d554jxxxxxxxxxxxxxxxxxxxPPPP-+++++++3353xxxxxxxxxxxxxxxxxxxnPPPT",
"d55400009999999999999990PPPP-+++++++3553999999999999999999wuPPPE",
"d55545555555555555555555PPPP-++++++X35555555555555555555555wPPPR",
"d55555555555555555555555PPPP-+++++++34555555555555555555555wPPPT",
"d55555555553555555555555PPPP-+++++XX44555555555555555555555wPPPT",
"<%%%%%%%&%%%&&%&%%%&&%%%;;;;%++++++o&&%%%%%%&%%%%%&&&%&%%%&&;;;1",
">+++++++++++++.++++++++++++++++++++++++++++++++++++++.+++++++++>",
">+++++++++++++++++XX++++++++++++XX+++++++++++++++++++++++++++++>",
">XXXXXXX++.+.+++XXooooo.XXXXX..+XoooXXXXXXX.+.+.+++.+.+oXXXXXX.>",
"USDDDDDDDDDD&++.SSDDSSDDDDDDDDDDDDDDDDDDDDDDDDSS.++&DDDDDDDDDDDY",
"EPPPPPPPPPPP&++.LPPPPPPPPPPPPPPPPPPPPPPPPPPPPPIL.++&PPPPPPPPPPPT",
"EPPPPPPPPPPP-++.LPPPPPPPPPPPPPPPPPPPPPPPPPPPPPPL.++&PPPPPPPPPPPT",
"EPPPPPPPPPPP&++.LPPPPPPPPPPPPPPPPPPPPPPPPPPPPPPI.++&PPPPPPPPPPPT",
"v00wxnnxLPPP&++.0wwwnnnnnnnnnnnnnnnnMMnnnnnxPPIL ++%ywwunnMNPPPT",
"f553jxxxLPPP&+++3553xxxxxxxxxxxxxxxxxxxxxxxlPPPL +++5555xxxnPPPT",
"f553jxxxLPPP&+++3553xxxxxxxxxxxxxxxxxxxxxxxxPPPL ++#5555xxxnPPPT",
"f453jxxjGPPP&++.3553xxxxxxxxxxxxxxxxxxxxxxxjPPPL ++#5555xxxnPPPT",
"d553jxxkLPPI*++o6563xxxxxxxxxxxxxxxxxxxxxxxlPPPL ++%5550xxxnPPPT",
"d553jxxxLPPI*++o3336xxxxxxxxxxxxxxxxxxxxxxxxPPPL .++5555xxxMPPPT",
"d553hlxxLPIL*++o3356xxxxxxxxxxxxxxxxxxxxxxxxPPPL.++%5550xxxMPPPT",
"d553jxxxLPLL*++o3536xxxxxxxxxxxxxxxxxxxxxxxjPPPL.+++5555xxxMPPPT",
"d5555555FPPP*++o3553555535969339553955555966PPPL ++$3555555uPPPT",
"d5555553FLPP*++o3555555535665555555555555563PPPL +++5555555wPPPT",
"d5555533LPPP*++o3555555555335555555555553336PPPL ++%5555555wPPPT",
"d5555533FPPP*++o3555555555555553555555559333IPPL +++5555555wPPPE",
",++++++++$++++++++++++++++++++++++++++++++++$+++.+++++++++++++$,",
">++++++++++++++++++++++++++++++++++++++++++++++++++++++++++++++,",
">+++++++++++++++++++++++++++++++++++++++++++++++++$++++++++++++,",
">..+++.+++.+oooo.++.+.++++.+.+++++++++...++.++.+ooo+.++.+.++.+.:",
"USSSSSSSSSSSSSSSSSSSSSSSSSSS=++++++.SSSSDSSSSSSSSDSSSSSSSSSSDSSU",
"EPPPPPPPPPPPPPPPPPPPPPPPPPPP-++++++.LLPPPPPPPPPPLIILPPPPPPPPPPPE",
"EPPPPPPPPPPPPPPPPPPPPPPPPPPP-++++++.LIPPPPPPPPPPPILIPPPPPPPPPPPE",
"EPPPPPPPPPPPPPPPPPPPPPPPPPPP-++++++.FIPPPPPPPPPPPILIPPPPPPPPPLLE",
"bqqwxMMnnnnnnnnnMMMnnnnnPPPP-++++XXo0yy0nnnnnnnnNMnnnnnnnnnNPPPT",
"f636jxxxxxxxxxxxxxxxxxxxPPPP-++++#Xo3533lxxxxxxxzzxxxxxxxxxnPPPT",
"f533hlxxxxxxxxxxxxxxxxxxPPPP-+++++#o3353jxxxxxxxxxxxxxxxxxxnPPPT",
"f555jxxxxxxxxxxxxxxxxxxxPPPP-+++++Xo3354xxxxxxxxxxxxxxxxxxxnPPPT",
"f454jlxxxxxxxxxxxxxxxxxxPPPP-++++++X4444xxxxxxxxxxxxxxxxxxxnPPPT",
"d454jxxxxxxxxxxxxxxxxxxxPPPP-+++++++4454jxxxxxxxxxxxxxxxxxxnPPPT",
"d554hxxxxxxxxxxxxxxxxxxxPPPP-++++++X3453xxxxxxxxxxxxxxxxxxxnPPPT",
"d454hlxxxxxxxxxxxxxxxxxxPPPP-+++++++3553xxxxxxxxxxxxxxxxxxxMPPPT",
"d554jxxxxxxxxxxxxxxxxxxxPPPP-++++++o3453lxxxxxxxxxxxxxxxxxxnPPPT",
"d554jxxxxxxxxxxxxxxxxxxxPPPP-++++++o3453xxxxxxxxxxxxxxxxxxxnPPPT",
"d554hlxxxxxxxxxxxxxxxxxxPPPP-+++++++3553xxxxxxxxxxxxxxxxxxxnPPPT",
"d554jxxxxxxxxxxxxxxxxxxxPPPP-++++++X3553xxxxxxxxxxxxxxxxxxxMPPPT",
"d55555555555355555555555PPPP-+++XXOo34555555555555555555555yPPPT",
"d55555555555555555555555PPPP-+++##Oo34555555555555555555555wPPPT",
"d55555555555555555555555PPPP=+++X+Oo35555555555555555555555wPPPT",
"d55555555555555555555555PPPP;+++++Oo35555555555555555555555wPPPT"
};
