/* XPM */
static char *_55c89e8ca7c4aa4dd86f44dac99a1c4Dup2axmIhrh081HN[] = {
/* columns rows colors chars-per-pixel */
"64 64 47 1 ",
"  c black",
". c #010101",
"X c #020101",
"o c #020201",
"O c #030202",
"+ c #030302",
"@ c #040302",
"# c #090604",
"$ c #0C0704",
"% c #0C0705",
"& c #0B0B0B",
"* c #0C0C0C",
"= c #0F0E0E",
"- c #171210",
"; c #161616",
": c #E65B1F",
"> c #EB5B1D",
", c #EF5C1D",
"< c #EC5C1E",
"1 c #F05C1C",
"2 c #F35F1F",
"3 c #F45F1E",
"4 c #F45F1F",
"5 c #F65F1E",
"6 c #F95F1D",
"7 c #F5601F",
"8 c #F6601F",
"9 c #F7601F",
"0 c #FE601B",
"q c #FA601D",
"w c #F8601E",
"e c #F9601E",
"r c #FA601E",
"t c #FC601D",
"y c #FD601D",
"u c #FE601C",
"i c #FF611D",
"p c #ED5E21",
"a c #F05F20",
"s c #F25F20",
"d c #F26020",
"f c #F36020",
"g c #F16327",
"h c #FE6726",
"j c #FF6827",
"k c #F76729",
"l c #FB6728",
/* pixels */
"                                                               *",
"                                                               *",
"                                                               &",
"+@   ++ ++ +++ +@ + + ++@ +      ++ + +++@   @+ + ++++ + ++    &",
"rrrrrrrrrrrrrrrrrrrrrrrrrrrd   #rrrrrrrrrrrrrrrrrrrrrrrrrrr<   &",
"iiiiiiiiiiiiiiiiiiiiiiiiiii9   #iiiiiiiiiiiiiiiiiiiiiiiiiii1   &",
"iiiiiiiiiiiiiiiiiiiiiiiiiii9+  %riiiiiiiiiiiiiiiiiiiiiiiiii1   &",
"iiiiiiiiiiiiiiiiiiiiiiiiiii9   %iiiiiiiiiiiiiiiiiiiiiiiiiii1   &",
"iiiiiiiiiiiiiiiiiiiiiiiiiiif   #iiiiiiiiiiiiiiiiiiiiiiiiiii1   &",
"iiiiiiiiiiiiiiiiiiiiiiiiiiir   #r0iiiiiiiiiiiiiiiiiiiiiiiii1   &",
"iiiiiiiiiiiiiiiiiiiiiiiiiiif+  %iiiiiiiiiiiiiiiiiiiiiiiiiii1   &",
"rrrrrrrirrrrrrrrrrrfrrrrrrrd   %9rrrrr6irrrrrrrsrrrrrrfirrr>   &",
"  @ @ @  @ @  @   @  @    @       @ @ @    + @ @  @ @ @  @     &",
"                                                               &",
"                                                               &",
"@@@@@@@@@@@@    @@@# #@@@@+#@@@@@@@@@@@@# #     @@@@@@@@@@@@@@@=",
"fifi6fi6rrrf@  @rrrrrrrrrrrrrrrrrrrrrrrrrrra   %i6firrrrrrrrrrrl",
"iiiiiiiiiiir   @riiiiiiiiiiiiiiiiiiiiiiiiii4   %iiiiiiiiiiiiiiij",
"iiiiiiiiiiir@  @riiiiiiiiiiiiiiiiiiiiiiiiii4   %6iiiiiiiiiiiiiij",
"iiiiiiiiiiir   @riiiiiiiiiiiiiiiiiiiiiiiiii4   %iiiiiiiiiiiiiiij",
"iiiiiiiiiiir@  @riiiiiiiiiiiiiiiiiiiiiiiiii4   %6iiiiiiiiiiiiiij",
"iiiiiiiiiiir   @riiiiiiiiiiiiiiiiiiiiiiiiii4   %0iiiiiiiiiiiiiij",
"iiiiiiiiiiif@  @riiiiiiiiiiiiiiiiiiiiiiiiii4   %iiiiiiiiiiiiiiij",
"iiiiiiiiiiii   @riiiiiiiiiiiiiiiiiiiiiiiiii4   %6iiiiiiiiiiiiiij",
"iiiiiiiiiiir   @riiiiiiiiiiiiiiiiiiiiiiiiii7   %iiiiiiiiiiiiiiij",
"iiiiiiiiiiir@  @riiiiiiiiiiiiiiiiiiiiiiiiii9   %0iiiiiiiiiiiiiij",
"iiiiiiiiiiir   @riiiiiiiiiiiiiiiiiiiiiiiiiif   %iiiiiiiiiiiiiiij",
"rffffffffrfd@  @ffrfffffrfrfffff99999999frfp   %99frffff9999999k",
"    + +  @         @     +   +  +          +           +       =",
"                                                               &",
"                                                               &",
"####################%###%###    #%####%%##########%%####%%##   &",
"6i6i6i6i6i6i6i6i6i6i6i6iiiif   #riri6i6ii6i6i6i6i6i6i6i6i6i,   &",
"iiiiiiiiiiiiiiiiiiiiiiiiiiif   #iiiiiiiiiiiiiiiiiiiiiiiiiii1   &",
"iiiiiiiiiiiiiiiiiiiiiiiiiiif+  #riiiiiiiiiiiiiiiiiiiiiiiiii1   &",
"iiiiiiiiiiiiiiiiiiiiiiiiiiif   #iiiiiiiiiiiiiiiiiiiiiiiiiii1   &",
"iiiiiiiiiiiiiiiiiiiiiiiiiiif+  #6iiiiiiiiiiiiiiiiiiiiiiiiii1   &",
"iiiiiiiiiiiiiiiiiiiiiiiiiiir   %iiiiiiiiiiiiiiiiiiiiiiiiiii1   &",
"iiiiiiiiiiiiiiiiiiiiiiiiiiif   #6iiiiiiiiiiiiiiiiiiiiiiiiii1   &",
"iiiiiiiiiiiiiiiiiiiiiiiiiiir   #iiiiiiiiiiiiiiiiiiiiiiiiiii1   &",
"iiiiiiiiiiiiiiiiiiiiiiiiiii9   #6iiiiiiiiiiiiiiiiiiiiiiiiii1   &",
"iiiiiiiiiiiiiiiiiiiiiiiiiii9   #iiiiiiiiiiiiiiiiiiiiiiiiiii1   &",
"iiiiiiiiiiiiiiiiiiiiiiiiiiir   %6iiiiiiiiiiiiiiiiiiiiiiiiii1   &",
"4444444444444444s444444444sp   %444444444444444444444444444:   &",
"                                                               &",
"                                                               &",
"                                                               &",
"%%%%%%%%%%%%    %%%%%%%%%%%%%%%%%%%%%%%%%%%%    %%%%%%%%%%%%%%%-",
"i600i600i606   @r0i600i600i600i66i006i006i04   %060000i600i600ih",
"iiiiiiiiiiir   @riiiiiiiiiiiiiiiiiiiiiiiiii4   %iiiiiiiiiiiiiiih",
"iiiiiiiiiiir@  @riiiiiiiiiiiiiiiiiiiiiiiiii4   %iiiiiiiiiiiiiiij",
"iiiiiiiiiiir   @riiiiiiiiiiiiiiiiiiiiiiiiii4   %6iiiiiiiiiiiiiij",
"iiiiiiiiiiii@  @riiiiiiiiiiiiiiiiiiiiiiiiii4   %0iiiiiiiiiiiiiij",
"iiiiiiiiiiif   @riiiiiiiiiiiiiiiiiiiiiiiiii4   %0iiiiiiiiiiiiiij",
"iiiiiiiiiii6@  @riiiiiiiiiiiiiiiiiiiiiiiiii4   %iiiiiiiiiiiiiiij",
"iiiiiiiiiiii   @riiiiiiiiiiiiiiiiiiiiiiiiii4   %6iiiiiiiiiiiiiij",
"iiiiiiiiiiir   @riiiiiiiiiiiiiiiiiiiiiiiiii4   %iiiiiiiiiiiiiiij",
"iiiiiiiiiiif@  @riiiiiiiiiiiiiiiiiiiiiiiiii4   %6iiiiiiiiiiiiiij",
"iiiiiiiiiii6   @riiiiiiiiiiiiiiiiiiiiiiiiii4   %0iiiiiiiiiiiiiij",
"11111111111>   @<11111111111111111111111111:   %111111111111111g",
"                                                               &",
"                                                               &",
"                                                               &",
"=&&=&&=&&=&&=&==&&=&&=&&=&&=&&=&&=&&=&&=&&=&&=&&=*&=&&=&&=&&=&=;"
};
