/* XPM */
static char *_2023bcfa86a417efb8c5834dd43cc0euiux0umohbAS4omz[] = {
/* columns rows colors chars-per-pixel */
"64 64 256 2 ",
"   c #1E1912",
".  c #1C1309",
"X  c #350B01",
"o  c #2B1604",
"O  c #2B1B0B",
"+  c #291809",
"@  c #331C04",
"#  c #321D0C",
"$  c #3A1906",
"%  c #231B13",
"&  c #2B1D13",
"*  c #241D1A",
"=  c #291C19",
"-  c #331A10",
";  c #38220B",
":  c #2B2115",
">  c #24211C",
",  c #2C221B",
"<  c #292416",
"1  c #342314",
"2  c #34231B",
"3  c #392718",
"4  c #322613",
"5  c #2A2624",
"6  c #362B25",
"7  c #393228",
"8  c #3B3634",
"9  c #281F20",
"0  c #441500",
"q  c #4C1A01",
"w  c #491601",
"e  c #521E01",
"r  c #4A2304",
"t  c #482808",
"y  c #542300",
"u  c #532B01",
"i  c #582906",
"p  c #4D3205",
"a  c #593609",
"s  c #462A18",
"d  c #4A331A",
"f  c #5C3B14",
"g  c #543C1C",
"h  c #5C3C1C",
"j  c #553516",
"k  c #532D1A",
"l  c #632C09",
"z  c #663605",
"x  c #673A17",
"c  c #6E3912",
"v  c #482E21",
"b  c #483827",
"n  c #553C23",
"m  c #5B3D24",
"M  c #543C2A",
"N  c #5B3D2A",
"B  c #563626",
"V  c #483B32",
"C  c #5D3D30",
"Z  c #623D29",
"A  c #693D2B",
"S  c #5B421C",
"D  c #584118",
"F  c #5E430C",
"G  c #69420A",
"H  c #764609",
"J  c #694518",
"K  c #7C4214",
"L  c #784819",
"P  c #7B531A",
"I  c #6E501A",
"U  c #5B4223",
"Y  c #59452B",
"T  c #564636",
"R  c #4C432F",
"E  c #684727",
"W  c #774B28",
"Q  c #7D522C",
"!  c #795727",
"~  c #654B33",
"^  c #764D31",
"/  c #6B5438",
"(  c #785636",
")  c #6C562B",
"_  c #726136",
"`  c #3C4041",
"'  c #57534E",
"]  c #775B44",
"[  c #6C5746",
"{  c #7A6245",
"}  c #776955",
"|  c #6F6355",
" . c #696863",
".. c #756D68",
"X. c #74726A",
"o. c #7A7874",
"O. c #844B17",
"+. c #8D551C",
"@. c #8A5619",
"#. c #935B1A",
"$. c #804503",
"%. c #98631B",
"&. c #8B601B",
"*. c #835324",
"=. c #8C5425",
"-. c #8C5B23",
";. c #84542B",
":. c #89562C",
">. c #8C5A2B",
",. c #855B28",
"<. c #935B24",
"1. c #935A2C",
"2. c #965929",
"3. c #855A32",
"4. c #8B5C33",
"5. c #875937",
"6. c #935D34",
"7. c #854E23",
"8. c #8B6429",
"9. c #94632B",
"0. c #9C652C",
"q. c #9D6A2C",
"w. c #986527",
"e. c #896439",
"r. c #946433",
"t. c #9B6A33",
"y. c #93633C",
"u. c #9C6C3B",
"i. c #996836",
"p. c #997239",
"a. c #8F7135",
"s. c #A46C24",
"d. c #A36C2B",
"f. c #A66929",
"g. c #A9732B",
"h. c #A36C32",
"j. c #A76C36",
"k. c #A47334",
"l. c #AA7438",
"z. c #B4783A",
"x. c #A56C1F",
"c. c #8B5E43",
"v. c #8D6945",
"b. c #9B6C43",
"n. c #956943",
"m. c #8A764C",
"M. c #9A7647",
"N. c #8A7559",
"B. c #9A7654",
"V. c #876E53",
"C. c #A26D45",
"Z. c #AA7746",
"A. c #B47C47",
"S. c #A57A56",
"D. c #B37D53",
"F. c #897A6E",
"G. c #C27E45",
"H. c #B5893D",
"J. c #B08836",
"K. c #B78847",
"L. c #BB954B",
"P. c #BD9A4B",
"I. c #BB9645",
"U. c #AA8958",
"Y. c #B88657",
"T. c #AC935C",
"R. c #B3955C",
"E. c #BA9757",
"W. c #AB8349",
"Q. c #80827F",
"!. c #9C8567",
"~. c #A68A64",
"^. c #B68A63",
"/. c #AC9567",
"(. c #B69966",
"). c #AB8F71",
"_. c #BCA469",
"`. c #BDA677",
"'. c #998557",
"]. c #C4864C",
"[. c #C39445",
"{. c #C3954C",
"}. c #C39B4B",
"|. c #C59A48",
" X c #C78C56",
".X c #C39552",
"XX c #C79758",
"oX c #D1955F",
"OX c #CBA659",
"+X c #D3A85A",
"@X c #C29767",
"#X c #D49F66",
"$X c #C3A463",
"%X c #CAAC6C",
"&X c #C6A86B",
"*X c #D4A967",
"=X c #CAB26D",
"-X c #CFB266",
";X c #D3B26B",
":X c #C7AB75",
">X c #CCB372",
",X c #CBB377",
"<X c #D4B779",
"1X c #D0AC72",
"2X c #E1B56A",
"3X c #E6BA7B",
"4X c #EFC07A",
"5X c #797D80",
"6X c #998D86",
"7X c #939390",
"8X c #A19A94",
"9X c #ADA398",
"0X c #9EA3A4",
"qX c #A7A8A9",
"wX c #BBBCBB",
"eX c #B7B8B6",
"rX c #B2B1AE",
"tX c #9EA09F",
"yX c #D6BB85",
"uX c #CBB481",
"iX c #E2BF8E",
"pX c #C4BCB9",
"aX c #C1B4AC",
"sX c #DBC59F",
"dX c #BCBEC1",
"fX c #BAC2C3",
"gX c #CCCDCD",
"hX c #C5C8C8",
"jX c #D2CCC9",
"kX c #CBCED1",
"lX c #CCD2D4",
"zX c #CAD4D5",
"xX c #D3D3D4",
"cX c #D3D5D9",
"vX c #D8D9DA",
"bX c #D2D0D0",
"nX c #E3DCDC",
"mX c #E7E1DA",
"MX c #DADFE2",
"NX c #DEE3E4",
"BX c #ECEBEC",
"VX c #E9E6E9",
"CX c #F4ECE9",
"ZX c #F9F4ED",
"AX c #EEF3F5",
"SX c #F4F5F4",
"DX c #FDFCF7",
"FX c #F4F6F9",
"GX c #F6FCFD",
"HX c #FFFDFF",
"JX c #FDFFFF",
"KX c #FEFEFF",
"LX c #FDFEFD",
"PX c #FDFEFD",
"IX c #FAF7F7",
"UX c #EDEFF1",
/* pixels */
"HXHXHXLXLXLXLXLXLXLXFXJXGXJXGXDXHXJXGXJXHXHXLXHXLXLXLXHXHXIXHXLXHXLXHXHXJXLXLXLXGXDXHXDXHXHXJXHXHXAXLXLXSXJXGXHXHXHXHXHXHXJXHXGX",
"HXHXLXLXHXDXIXLXHXFXJXJXJXAXHXSXGXHXHXHXLXJXHXHXLXLXHXLXJXJXLXHXHXLXHXHXJXLXHXHXJXDXDXGXHXHXJXFXLXLXIXLXDXGXSXHXHXHXHXHXHXHXHXGX",
"JXHXLXLXHXDXHXHXLXJXAXJXJXHXDXHXHXHXHXJXLXHXHXGXFXBXcXdXeXqXtX8XtXqXeXhXvXVXSXFXSXGXGXSXJXJXJXHXLXLXIXFXGXDXJXJXHXHXHXHXHXHXHXGX",
"GXJXHXLXHXDXDXDXIXLXJXGXGXDXDXSXDXDXBXgX8X..' V < < + O < 4 4 7 6 1 : .   < 7 8 [ F.Q.aXmXDXHXIXHXLXLXHXDXGXSXHXHXHXHXHXHXHXHXDX",
"GXGXJXGXDXDXDXHXJXGXJXFXDXDXjX9X| R O + d Y / _ m.'.T./.(._._._._._.`._./.~.m.{ _ / D ; + 3 | 6XpXCXHXZXHXGXHXHXHXHXHXHXHXHXHXJX",
"GXGXJXGXHXDXGXJXGXJXAXJXGXrX< 4 Y { N././.~./.(.(.$X%X-X;X+XOX-X-X-X<X<X<X<X<XyX,XuX9X,X`.!.( Y + ' CXDXSXDXHXSXHXHXHXHXHXHXJXJX",
"GXGXJXJXJXHXHXJXGXJXJXSXSXR 7 !.m.(.(./._./.(.=X,X>X1X=X=X=X=X=X=X=X,X<X<X<X<X<X<XyXuXyXiXsX`.).F.b 6XDXDXHXJXGXHXJXHXHXHXHXJXJX",
"JXGXJXGXGXDXHXHXHXFXJXHXpX+ R [ e.(.(.T.(.(.(.&XR.T.W.M.a.a.a.8.8.a.a.a.'.U.T./._.:X,XyXyX,X).~.V.F.C IXDXDXHXHXHXHXHXHXDXHXJXJX",
"LXLXLXLXLXLXLXLXHXHXIXLXF.v T B { { / U E f p r J J P w -.L P *.! ! 8.3.$ ! J J p f a E E / c.B N.N.3 jXDXHXFXJXJXJXHXHXHXHXHXHX",
"LXLXLXLXLXLXLXLXSXHXLXZXb s N M ^ { t m.v.m.v.E y.n.y.l C.y.1.u.p.a.b.b.i y.v.b.3.n.v.e.v.t ).~.N.V.; F.DXLXLXJXJXJXHXDXDXHXHXHX",
"LXLXLXLXLXLXLXLXHXIXLXCX2 ~ ] v.y.t.$ Z.j.b.b.P y.M.5.u n.y.3.b.b.y.b.b.l 5.6.M.-.8.p.p.K.0 Y.^.(.).~ v ZXDXJXFXHXDXDXHXDXHXHXHX",
"DXLXHXLXLXLXLXHXHXLXLXaX+ ] ] ( a.@.z Z.p.u.9.P L ! L u W I z J c x J W y x G I 8.8.t.p.p.u 8.^.^.).N.+ pXHXHXJXJXGXHXDXHXHXHXHX",
"DXDXHXDXHXHXHXJXHXHXDXQ.1 N j E J p p F F F I ! ! 8.a.p.U.R.T.R.(.R.R.R.'.W.a.a.8.I I I F p a 3.v.m.V.- o.HXFXJXJXHXDXDXDXHXHXHX",
"HXHXHXHXHXJXJXJXGXGXZXT 6 n g ) T.T.T._.T.(.R.R.R._.=X,X%X=X;X%X=X&X_._.=X_.=X=X,X=X$X1X,X<X1X:XU.B.N.v v LXLXLXJXDXHXHXDXHXHXHX",
"DXHXDXHXJXJXJXGXJXJXBX% R } !.v./.R.U.R.U.R.R.R.R._.=X=X%X&X=X&X=X=X=X=X>X>X>X=X$X=X;X<X%X<XiXiX@X).~.[ % bXHXGXJXGXDXDXDXHXHXHX",
"HXHXDXHXJXJXJXJXJXAXrX+ R ~ ( e.(.T.$XR.E.$XK.E.R.&X:X_.%X_._.OXE.-X$X$X=X_.=X=X;X%X>X;X*XyXiXyXU.M.B.N.1 7XFXJXJXDXDXHXDXHXHXHX",
"HXDXHXHXJXJXGXJXJXDXo.+ d s u f E p I H z H H z J a p x J G L z H H z L p p G z G z z G G I S ] 5.Q M.5.@ ' HXGXGXHXHXDXHXHXDXHX",
"HXHXDXHXJXJXGXJXGXDXT 1 U j Q Q ( E e.a.q.k.t.q.r.3.E ^ y.@.1.O.q.q.>.b.( E M.p.t.9.-.u.t.p.U ~ ~.n.b.3.o 6 AXJXJXHXDXDXHXHXDXHX",
"DXDXHXDXJXJXJXJXDXCX< 3 ~ E 6.5.~ E p.q.j.z.k.k.i.3.x ^ n.*.h.O.t.0.1.b.Q f e.t.q.0.-.p.k.Z.E N ^.^.Y.^.d & zXGXGXHXDXHXHXHXHXHX",
"HXJXHXJXJXJXJXJXHXhX% s E Q ;.5.E W u.-.d.j.f.h.h.5.x 3.i.8.2.O.d.<.2.C.( a u.l.2.d.<.9.q.l.5.h ^.@XXX@XE + rXGXJXHXDXDXDXHXHXGX",
"HXJXHXHXJXJXJXJXDX8XO d Z 5.K 6.c 5.j.+.j.z.f.z.d.=.l 3.-.q.O.+.d.@.<.j.3.a h.h.+.f.j.2.g.j.6.k Y.^. X X/ + Q.GXJXHXHXDXHXJXJXJX",
"HXHXJXJXJXJXJXJXDX..O B x 5.7.6.e 6.2.#.j.f.f.f.h.-.z 6.-.l.$.d.d.@.2.j.4.u k.q.+.f.d.+.z.j.C.e S. X@X Xv.1 ' JXHXHXDXDXHXJXHXJX",
"JXJXDXHXJXJXHXDXHX' - m Z 7.O.2.e C.2.f.f.z.x.x.d.<.i -.@.q.H d.s.O.0.h.,.u k.f.#.l.d.O.f.z.D.w D. X X XB.@ 8 JXHXDXHXDXJXJXJXJX",
"JXJXHXHXJXJXHXHXDX, # B A :.K 2.w D.#.2.j.f.x.f.s.#.i q.k.I.z.OXOXK. XK.8.y k.s.$.j.h.#.f.z.Z.e l.oX].XX^.o * FXHXDXDXDXJXJXJXGX",
"JXHXHXJXJXDXHXDXCX: O g ^ 7.K 2.w C.2.2.l.h.s.g.x.g.H.K.L.[..XXXOX+X2X3X<X$XK.g.H k.k.@.s.z.D.q ].]. X X^.; 5 vXHXDXDXDXHXJXJXJX",
"JXJXJXHXHXJXHXHXVX% # m W 7.K 2.w C.=.0.d.w.s.g.[.H..XXX}.P.L.L.L.{.XXOX1X;X2X2Xq.w.k.@.s.g.].y A.]. X].^.; * xXHXDXDXDXHXJXGXJX",
"JXHXDXHXHXHXHXDXjX& 1 m A 7.K 2.w b.-.d.k.k.J.[.|.{..XXXP.P.P.P.P.P.P..XOX-X2X2X4XL.a.@.s.z.Y.e A.G.oX].U.3 > dXHXDXDXHXJXJXJXJX",
"HXHXJXHXJXHXHXHXpX% 3 N ^ c K 2.q b.-.9.d.l.H.H.[.I.{.{.P.P.P.E.I.P.}..XP.OX+X+X2X3XW.-.d.z.Y.i Z.z. X XS.s * rXDXHXDXDXHXJXGXJX",
"JXHXHXHXHXHXHXHXrX% 3 N E K O.=.y y.L 9.k.W.P.|.[.[.{. X|.|.L.P.P.P.[.L.P.OXOX+XOX<X1X@.f.A.G.l l.j. X XB.g * qXHXDXHXDXHXJXGXJX",
"JXHXHXHXHXHXHXDXrX% 2 m E x c =.e 5.G r.Z.p.g.g.|.|.{.{.|.[.L.L.P.}.}.}.P.E.|.OXJ.p.<XP f.A.^.l C.f.].oXS.M > 0XHXHXDXDXJXJXJXJX",
"HXDXHXHXJXHXHXHXrX= 1 M Z c c =.e 6.c ;.p.9.@.%.[.[.[.{.|.I.I.I.H.H.[.}.P.P.|.|.#.P &X,.t.z.D.l C.f.]. XB.M   qXHXDXHXDXHXJXGXJX",
"HXHXHXHXHXJXJXHXrX= 2 B x k K :.q b.G H 9.K.I.[.[.[.[.{.[.I.I.K.P.P.|.[.P.P.}.+X#X&XY.*.d.A.D.l j.6.]. XB.T   qXHXHXDXDXHXGXJXJX",
"LXLXHXLXLXLXLXLXpX5 - v ~ e A :.e 5.H K -.#.].{.|.K.L.P.P.P.P.P.P.P.|.H.P.L.L.*X*X#X=.=.l.A.A.l t.9.K. XS.v 9 qXHXHXLXDXHXJXJXJX",
"LXLXHXHXLXLXLXLXhX= = - Z q c 5.w c.P K @.O.d.J.{..XE.E.P.H.J.H.H.I.P.P.P.$XXX+X+Xh.O.6.g.A.K.y r.q.Y.Y.S.B 9 dXHXHXDXLXDXJXJXGX",
"LXLXHXHXHXHXIXLXnX% 2 + N q l c.0 v.P c =.O.+.&.K..XU.W.I.H.I.P.I.I.J.K.K.&X*XXXO.O.0.C.j.A.K.l i.0.A. XS.B * kXHXIXLXDXJXJXJXJX",
"LXLXLXHXHXLXHXHXCX* 6 + C q e c.$ c.W z 1.>.#.@.z r.W.R.E.I.K.K.W.I.E.L.Y.p.9.u O.f.j.h.j.K.Z.e y.0.A. XS.v   NXHXHXLXDXJXJXHXHX",
"LXLXLXLXIXHXHXHXHX9 - + Z q w c.0 5.;.l =.=.<.<.@.*.y a P w.a.w.p.w.8.z L i t.+.f.g.#.j.A.A.D.w 0.h.G.G.S.s * UXHXDXDXHXJXJXHXHX",
"LXLXLXLXHXHXHXHXLX' & - B k X ;.w 5.:.z =.2.+.<.@.i.c 6.t.-.@.z H H w.L 4.y 9.P #.x.f.z.l.A.D.w i.f.G. XS.$ 8 GXJXHXDXDXJXJXHXHX",
"JXHXLXLXHXHXHXHXIXo.= - v k X A e ^ :.l =.2.+.@.+.1.i :.i.r.u.K h.q.i.K n.l C.#.x.g.f.s.g.A.^.w 6.f.G. XB.$ ' GXJXGXDXDXLXLXLXLX",
"JXJXHXHXHXHXHXHXHX6X= - k k X A w W 2.z =.=.+.=.2.1.i y.C.u.l.L i.l.j.7.c.i u.#.#.x.s.s.].A.C.l 6.j.G. XC.- ..GXGXDXDXLXLXLXLXLX",
"JXJXHXHXHXHXHXHXHXpX= 6 s B X B q ^ =.H L 2.2.+.2.=.c W 6.j.C.K 0.l.h.;.c.l y.+.x.%.f.g.z.l.Z.l y.2.G.@Xv.; 7XGXDXDXDXDXHXHXHXHX",
"JXGXJXJXDXHXHXHXHXnX= = - C w w k A 5.L c 6.2.+.=.7.l x :.:.1.c 1.i.6.L c.l C.2.#.f.f.g.H.Z.6.A y.Z.D. XE + eXGXJXJXDXHXHXHXHXHX",
"JXJXJXJXHXDXHXDXHXHXV = 6 V X s k t 5.L c >.=.<.1.5.c A :.=.=.l 7.8.=.c W l y.-.w.l.g.l.J.W.! _ e.e.D.^.g 1 UXGXGXDXDXDXJXJXHXHX",
"JXGXJXHXHXHXHXHXLXBX .7 X v - s k t A W x Q ;.*.*.Q x E ;.Q Q z W :.*.x E f :.L P t.j.A.W.Z.J U ( ^ e.W t V UXGXJXGXDXDXJXJXHXHX",
"JXJXJXHXDXHXHXHXHXHXtX. = - v # O @ ; p j a a u a j t i f a a u z x f u p t f u a a f a a F F D D a I E o ..JXGXJXHXHXDXJXJXJXJX",
"JXJXHXHXHXHXHXHXHXGXvX> 6 V 9XV & 4 o ; j j D f f S g m J D J f f S J f g m S f D z ! ( ! ! _ _ } 9X( Y - 9XGXGXJXHXDXDXJXJXJXJX",
"JXGXHXHXHXHXHXJXGXHXBX7 < = | & = < o @ d g E S D U U n g D S S m g S S U Y m U S E ~ / _ ) _ _ R } Y U 1 bXGXGXJXHXDXDXJXGXJXJX",
"JXJXDXHXJXDXHXJXHXGXHXo.% & 1 O 2 % 4 + @ g S g S U n U D D S S E g D D g U g S U / E ~ ) I Y Y D R d @ V LXJXGXJXHXDXDXGXJXJXGX",
"JXJXJXHXHXHXHXHXGXDXDXrX1 + M 1 1 3 - s $ s s t t t t r p p r t t q p t ; r j t i k j j f f j ( _ B.).4 Q.ZXGXJXHXDXDXHXHXHXJXGX",
"GXJXDXJXHXHXHXHXDXDXDXjX& 3 C 1 - ~ s Z s $ ~ c./ E ^ j ^ ^ ) x ^ ( ( ^ u E Q 5.5.n.n.5.S.u y.D.U.B.!.O eXGXDXJXHXDXDXDXDXHXJXGX",
"JXDXHXHXHXHXHXHXHXSXDXDX7 + v C X C X Z N $ A ~ 5.E ^ w W ^ 5.x W :.;.*.q K 6.b.C.M.y.:.y.u ;.^.U.m.{ 3 ZXSXJXGXHXDXHXHXHXHXJXJX",
"JXGXHXJXHXHXJXJXHXHXDXDX..= 6 - X v - k k 0 C A ^ ~ ^ r W ^ 4.J W :.3.3.y W e.u.n.y.e.;.y.r 3.Q E ( n | HXSXGXFXHXDXDXDXDXHXJXGX",
"GXDXHXHXHXHXJXHXSXJXIXIXpX+ = V C + 1 o ; @ @ o $ ; s $ p p j t j j d j $ d g B g s s n 3 B M n ~ / o 9XHXJXJXJXHXDXDXDXHXHXJXJX",
"DXDXDXHXHXHXHXHXJXJXHXLXVX5 9 F.6X1 = . O O 1 1 @ ; g g U U g g U g n U Y Y / Y / [ T [ [ ~ 9XV./ T ; mXHXJXGXGXHXHXHXHXHXHXJXJX",
"HXDXHXHXHXHXHXJXGXAXNXdXdX .* 6 V . 1 6 3 &   & O @ s d n U m m h f f g ^ ) ^ ( ~ / / / ~ C [ M / V ' eXhXNXUXJXJXHXDXDXHXHXJXJX",
"DXHXHXDXHXHXJXJXNXcXkXhXdXwX8 * * 9 % = % % 5 * 1 o O 1 b N N U g E U S E ~ ~ ~ / ~ / ~ T C 3 6 + 7 rXpXhXzXzXNXJXHXHXHXDXDXJXJX",
"DXHXLXIXLXLXLXSXlXlXzXzXhXhXrX5X` 7 >     9 >   * < O : 3 6 v v b b R R R b 7 7 5 , > > >   5 8 o.9XhXgXgXcXzXzXBXSXHXHXDXHXHXDX",
"JXHXLXLXLXLXLXSXvXkXzXzXkXlXkXdXfXeX7XX.' ` 8 > >       = * * = %           > < > > 5 `  .5X0XdXwXjXjXgXkXgXlXxXAXGXHXHXDXHXHXHX",
"JXJXLXLXLXLXHXGXFXNXMXcXxXkXcXxXfXfXfXfXfXfXdXdX0X7X7X5Xo.X. . . . . .} X.o.Q.Q.tXqXrXeXeXfXfXkXxXxXgXbXxXMXVXUXGXHXHXDXGXHXHXDX",
"DXGXLXLXHXLXHXHXJXGXFXAXNXcXcXcXzXzXzXkXzXfXfXfXfXfXdXeXwXwXdXdXeXwXwXwXwXfXfXfXfXhXzXlXzXzXcXcXzXxXvXNXAXSXGXHXHXHXHXGXHXHXHXJX",
"JXJXJXJXHXHXHXHXJXJXGXJXHXFXFXUXVXVXNXvXvXbXkXgXvXcXxXbXbXbXkXjXjXgXxXgXgXgXgXgXgXxXxXxXxXMXVXVXSXGXGXDXHXHXDXHXJXJXJXGXHXHXDXHX",
"JXJXJXHXHXDXLXHXGXHXJXJXHXLXLXLXHXHXLXLXIXIXIXIXBXBXVXBXBXVXVXVXBXVXVXVXCXAXSXZXCXSXHXDXDXHXJXLXGXDXHXGXDXHXDXDXGXJXJXJXHXHXHXDX",
"JXJXGXHXHXHXDXHXDXHXJXGXIXHXHXHXDXDXLXLXLXLXLXHXLXLXHXLXJXLXLXJXHXJXJXLXGXJXGXDXHXHXHXJXHXJXGXDXGXJXGXSXDXDXDXHXDXHXJXJXHXJXHXDX",
"JXDXGXHXHXHXHXHXDXHXJXHXHXLXHXHXDXDXLXLXLXLXLXLXLXLXLXLXHXHXJXJXJXJXHXHXHXHXHXHXHXHXHXHXHXDXJXJXJXHXHXDXHXDXDXDXHXHXJXJXJXJXDXHX"
};
