/* XPM */
static char *e001eaaeee9d4e7de27b5ffcaa3c93ccELRn23sSC3gdam9h[] = {
/* columns rows colors chars-per-pixel */
"64 64 250 2 ",
"   c #583800",
".  c #6A3F00",
"X  c #5B4F06",
"o  c #644400",
"O  c #6C4500",
"+  c #6C4C00",
"@  c #6F4C0A",
"#  c #734B00",
"$  c #764802",
"%  c #665705",
"&  c #795700",
"*  c #665816",
"=  c #785814",
"-  c #7A6300",
";  c #7A6718",
":  c #79711A",
">  c #776923",
",  c #786837",
"<  c #7B714D",
"1  c #805400",
"2  c #8A6907",
"3  c #956D03",
"4  c #9C7C01",
"5  c #977606",
"6  c #856818",
"7  c #8D7319",
"8  c #92720E",
"9  c #A27E01",
"0  c #A87F0B",
"q  c #A57E17",
"w  c #897526",
"e  c #997925",
"r  c #9C7A30",
"t  c #897E51",
"y  c #9E8301",
"u  c #9D8308",
"i  c #A38300",
"p  c #AA8402",
"a  c #A58A02",
"s  c #AB8A03",
"d  c #AD870D",
"f  c #AC8A0B",
"g  c #A6850D",
"h  c #B18A0A",
"j  c #AB940B",
"k  c #B79803",
"l  c #AE8613",
"z  c #AA8A13",
"x  c #AC861B",
"c  c #AA9519",
"v  c #B49814",
"b  c #B28315",
"n  c #BDA30B",
"m  c #B0A015",
"M  c #AD9621",
"N  c #B69B26",
"B  c #AD9D3E",
"V  c #B69C36",
"C  c #A08222",
"Z  c #BCA737",
"A  c #B4AA28",
"S  c #C3A504",
"D  c #C3A30D",
"F  c #C6AA0B",
"G  c #CAA807",
"H  c #D9B80B",
"J  c #C4A314",
"K  c #CBA817",
"L  c #D3AC18",
"P  c #CDB217",
"I  c #D9B71A",
"U  c #E6BD19",
"Y  c #EBBF08",
"T  c #C3A629",
"R  c #D1AC2A",
"E  c #C9B322",
"W  c #D7B725",
"Q  c #C2A939",
"!  c #C8B437",
"~  c #D6BA38",
"^  c #E5BE25",
"/  c #E2BE35",
"(  c #C29B1E",
")  c #DEC515",
"_  c #DCC60B",
"`  c #E5C502",
"'  c #EDC602",
"]  c #E5CB03",
"[  c #EDCC03",
"{  c #E5C50C",
"}  c #EDC50B",
"|  c #E6C90D",
" . c #EDCB0B",
".. c #F3C705",
"X. c #F9C603",
"o. c #F2CA04",
"O. c #FACB04",
"+. c #F3C60B",
"@. c #F1CA0A",
"#. c #F8CB0B",
"$. c #EED304",
"%. c #EDD30B",
"&. c #E9D608",
"*. c #F2D404",
"=. c #F4DD05",
"-. c #F4D30B",
";. c #F3DD0A",
":. c #F9DD0C",
">. c #FADA06",
",. c #E3C413",
"<. c #EDC614",
"1. c #E5CB14",
"2. c #ECCA12",
"3. c #E4C41C",
"4. c #ECC61A",
"5. c #E5CA1D",
"6. c #EBCB1C",
"7. c #F3C613",
"8. c #F2CA12",
"9. c #F3CC1B",
"0. c #F6CA17",
"q. c #ECD517",
"w. c #F3DC11",
"e. c #F8D616",
"r. c #FBE807",
"t. c #FFF207",
"y. c #FFEF15",
"u. c #FFED1A",
"i. c #F6E315",
"p. c #FFF316",
"a. c #DDC423",
"s. c #DCC729",
"d. c #DCC333",
"f. c #DBC839",
"g. c #E3C524",
"h. c #ECC523",
"j. c #E5CA22",
"k. c #EBCA24",
"l. c #E4C52C",
"z. c #E9CA2C",
"x. c #F1C722",
"c. c #F8CC28",
"v. c #ECD323",
"b. c #E9D326",
"n. c #F3D629",
"m. c #E4C635",
"M. c #E3CA34",
"N. c #EACC33",
"B. c #E6C83A",
"V. c #F2D535",
"C. c #FFE824",
"Z. c #FFE634",
"A. c #AC9B45",
"S. c #B09C48",
"D. c #A6965E",
"F. c #B9A644",
"G. c #BAA552",
"H. c #988B6A",
"J. c #9C9060",
"K. c #B9A86E",
"L. c #9F9055",
"P. c #C6B441",
"I. c #D8BB47",
"U. c #D6BD53",
"Y. c #C5B34B",
"T. c #D2BF60",
"R. c #DCC64B",
"E. c #DFC94E",
"W. c #D6C248",
"Q. c #D5C25D",
"!. c #DAC857",
"~. c #E2C749",
"^. c #E3CB52",
"/. c #F0D054",
"(. c #D7C566",
"). c #DEC970",
"_. c #EAD56C",
"`. c #EBD776",
"'. c #F1D675",
"]. c #FFF866",
"[. c #F3E47D",
"{. c #FFF044",
"}. c #AA9F81",
"|. c #BBB798",
" X c #BBB28D",
".X c #BABCA4",
"XX c #C4B698",
"oX c #C3B696",
"OX c #D9CC91",
"+X c #EBD686",
"@X c #E6D79B",
"#X c #F6D793",
"$X c #FAE586",
"%X c #F1E59D",
"&X c #D6CDB2",
"*X c #E6D7AA",
"=X c #E9DAB8",
"-X c #F5DEB7",
";X c #EAE5A7",
":X c #F8E9A9",
">X c #FDF6AB",
",X c #EBE5B7",
"<X c #F8E8BA",
"1X c #FFF9B2",
"2X c #FDF6B7",
"3X c #E8DECA",
"4X c #F3DFC4",
"5X c #EAE8C7",
"6X c #F3EEC4",
"7X c #F6EAC7",
"8X c #FBF5C8",
"9X c #EAEAD5",
"0X c #F5EEDB",
"qX c #F9EEDC",
"wX c #F3EBD6",
"eX c #ECF4DA",
"rX c #FAF1DC",
"tX c #F6F4D8",
"yX c #EDECE5",
"uX c #E5EEED",
"iX c #EDEEEC",
"pX c #E6E5E1",
"aX c #F3EDE5",
"sX c #F3EEEC",
"dX c #FBEEEC",
"fX c #FAEBE3",
"gX c #ECF2E4",
"hX c #E6F2EE",
"jX c #EDF2EC",
"kX c #E8F5E6",
"lX c #F3F1E5",
"zX c #FBF3E3",
"xX c #F3F2EC",
"cX c #FAF2EB",
"vX c #F7FAE7",
"bX c #EDEEF3",
"nX c #E6ECFA",
"mX c #ECEEFA",
"MX c #E7ECF3",
"NX c #F3EEF4",
"BX c #FBECF2",
"VX c #F2EDFB",
"CX c #FEEEFA",
"ZX c #EDF2F3",
"AX c #EDF1FD",
"SX c #E5F4F9",
"DX c #F1F2F2",
"FX c #F2F3FC",
"GX c #F8F5F7",
"HX c #DEE3DA",
/* pixels */
"].N.C.y.p.p.r.p.y.p.r.t.t.r.y.u.u.y.y.y.y.y.y.y.y.y.y.y.y.y.u.y.y.y.y.y.y.y.y.y.y.y.y.y.y.y.y.y.u.y.t.t.u.C.C.u.t.r.t.p.y.C.{.].",
"k D q.&.q.i.i.&.w.;.*.=.r.*.;.-.;.=.=.=.=.=.=.;.;.;.&.r.;.;.;.;.;.;.&.r.;.=.;.;.;.=.r.&.;.;.=.;.&.r.r.*.-.e.e.e.=.i.;.w.&.i.Z.V.",
"s n j.b.s.P a.a.1.&.` $.*.$. . .[ $.[ *.[ [ $.$.[ [ ] $.[ $.[ $.$.[ $.[ [ $.$.[ $.[ [ $.$.[ $.$.] ] ] ] [  . .2.,.) W M.s._ b.Z.",
"i n s.a.-   X y ) &.] ] [  .2. .[ o.o.o.[ [ ' ' [ o.@.@.[ o.@.@.' [ ' @.' @.[ ' ' o.o.@.' [ @.'  .| [ $. . .1.,.k +   + n b.q.1.",
"y n N.a % o   o F 1.8.}  .<.8.@.o...o.o...+...........#...+...+.+...+.....o.+.o.....+.o.+.....@. . . .' @.%.{ H & O #   - j.w.i.",
"a n M.2 2 e 7 + k { 8.2.}  .#.' ..@.+.......@.@.o.+.@.@.+.+.+.+.+...@.@.o.+.+.+.+.@...+.....@.@. . .' } @.@.{ H 2 2 e - % ) ] i.",
"a n V.k u 3 5 4 G  .7.@.@.o.o.o.[ @.@.@.@.-.@.-.@.@.@.@.@.*.@.@.@.@.@.*.@.@.*.@.@.*.@.@.-.@.@.@.' o.o.o.o.*.' { a 4 5 g y 5.] =.",
"p D ) b.n a a S 6.8.' @.o.' o.*.2.5.5.5.5.5.5.5.j.j.5.5.5.j.j.5.5.5.5.5.5.5.j.6.5.5.5.5.5.5.5.4. .o.*.o.' o.@.2.U s y k F _ r.=.",
"9 D 1.%.1.6.2.<.-.} @.O.' ' ' 9.M.^.~.E.E.^.E.R.E.E.E.E.E.E.^.E.~.E.E.E.~.E.E.E.E.^.E.E.E.^.^.f.z.} *...o.o.O. .6.6.j.6.2.| *.r.",
"p J 2. .] [ [ o.......' *.@.j.d.).%X1X1X1X1X1X1X1X1X1X1X1X1X1X1X1X1X1X1X1X1X1X1X1X1X1X1X1X1X:X$X~.g.8.' *.' o.@.@. . . . . .*.>.",
"9 G 2.[ [ [ o.o...O...` %.5.~.(.*X0XzXqXtXwXwX0XqX0XqXqXqX0XqXqXqXqXrX0XqXqXqXqX0XqXfX0XqXqXwX7X+X^.l.,.*.o.o.O.@.@.o.[ 6.@.*.>.",
"0 D <.$.[ o.o.O.o.o.#.6.a.~ ).-XzXGXsXiXDXGXGXBXNXNXNXNXNXVXDXNXNXNXDXDXDXNXNXDXNXDXNXNXNXGXGXzX<X#XE.) %.o.' o.....o.@.} @.*.>.",
"0 G <.' ' @.o.o.O.' 6.N.~ (.;XzXyXxXiXiXDXDXiXbXsXxXbXbXNXiXbXbXDXNXZXsXbXiXiXbXDXDXZXiXiXbXbXaXqX<X+X~.5.| [ o.....@.@.7.2.*.>.",
"p G 2. .} 8...o.o.@.j.f.(.;XtXjXjXDXDXjXxXsXuXjXDXZXDXDXZXDXDXDXDXZXDXZXDXDXDXDXDXDXDXDXZXsXiXiX0XwX2X+Xd.1. .@.+.@.@.@.2. .$.>.",
"a S | %. .8...o.o. .l.P.;X6XvXhXjXsXyXyXjXDXDXGXNXDXjXDXNXZXZXZXxXxXZXNXxXDXbXDXiXiXDXDXDXDXZXxXjXeXtX:XR.s.%.o.o.+.@.@. . .$.r.",
"a n  . .2.8.@.@.'  .~ Z 8X9XhXhXjXDXDXDXDXiXyXxXxXsXlXlXlXlXxXZXxXgXlXlXlXlXlXxXDXDXbXZXiXsXsXDXDXyXaX2X!.l.8.' @.@.[ %. . .*.&.",
"y D 2.o.} 8.<.2.' 2.d.A.6XaXxXxXgXsXbXFXuXkXvX9XHX.XXXoXoX X|..X.X|.|.oXoX|.oX9XjXFXnXnXFXsXdXdXZXxXaX6XQ.m.8.@.@.[ @.@.' [ %.r.",
"i D @.O.@.@.2.2.o.2.d.F.7XiXsXNXxXjXbXAXbXyXeX5X< , > 6 : : > > : > 6 6 6 6 > t HXZXSXSXZXaXdXBXNXDXaX6XQ.m.4... .[ [ o.@.@.$.;.",
"y S @.o.o.o.+.' o.%.s.B 5XsXjXDXDXbXMXZXmXbXyX&XG.Z P P P K P P F F L K K R T A.@XyXZXhXjXgXsXNXDXDXaX6XQ.m.7.@.@.] @.o.@.@.%.=.",
"y S  .*.' @. .[ ' -.f.B 6XiXsXZXFXbXuXFXAXVXdX*XW.l.1.' ..} 7.@.-.] #.0.7.c.l.T OX0XvXjXjXgXxXsXbXDXlX<XQ.m.6.' $.[ *.o.' [ $.=.",
"y D 8.o.' o.@.o.' @.d.B 6XyXjXDXNXNXNXFXVXVXBX*XR.q.%.} +.#.#...@.} } 7.U 9.g.V *XdXDXhXZXjXDXiXbXDXlX6XQ.l.6.o.$.[ [ $.@.o.*.=.",
"y J 6.@.' *.@.[ o.8.d.A.6XjXjXZXlXsXNXVXVXVXBX*XW.1.|  .+.X...' -.@.7.0.<.6.z.! &XdXZXMXZXZXFXbXDXZXgX6XQ.M.2.@.[ [ [ o...o.$.r.",
"u n 9.@.' @. .@.@.x.W.S.5XbXZXDXlXlXNXDXNXNXBXOXf.1.6.4.0.7...*.' $.' @. .1.q.A &XBXbXMXAXZXVXbXmXZXiX6XQ.M.6.@.[ ] [ @...o.$.*.",
"u J 6.@.@.@.} +.7.x.I.S.7XsXNXNXgXlXuXbXbXNXfX@Xf.1.3.4.7.} @.o.' *.[ [  .%.1.A *XBXDXZXFXMXbXFXmXZXjX6XQ.f.6.' %. .[ [ +.} $.r.",
"y S 2.*.' *.o.' @.U ~.G.,XsXsXsXjXjXhXkXuXcXwX@Xs.&.q.+.....o.o.' o...@.8.8._ A @XaXdXjXiXZXjXbXmXZXjX7XQ.B.4.@. . . .@.@.@.-.;.",
"y F  .o.' [ ' @.e.x./ S.@X8X7X4X9X9XHX5X5X5X=X@Xs.] [ @.o.} +.<.x.k.h.h.z.N.s.P.=XsXsXsXZXDXxXZXbXbXyX8X(.~ ,.@. . .[  .+.@.%.w.",
"i D 8.@.' *.[ [ ..@.^ 9 - % % % * * * * * = = & j.' ' *.@.<.~./.'.'.'._.`.[.`.OXwXBXDXbXNXsXgXcXDXDXlX7XQ.~ c.'  . .%.@.<.8.%.w.",
"i J 9.8.' $.[ [ ' +.9.L n m m v N N N V N N Q R 6.@.o.$. .z.'.>X8X8X8X2X8X8X8X8XxXFXNXNXFXbXsXlXDXsXfX,X!.m.9...[  .@.@.+. .-.;.",
"i J x.0.} [ ] [ o.' ' 2.5.b.q.{ 6.<.4.x.4.3.4.9.@.@. .5.f._.<XtXkXeXeXeXeXeXeXgXZXAXMXmXFXVXNXcXxXaXlX2XU.B.H ..[ [ [ @.} @.%.i.",
"p D x.7. . .[ *.o.o.@.@.| ] ' o.o...o.o.+...o.o...} 3.B._.:XeXjXZXZXkXkXkXjXZXZXZXZXZXmXFXVXiXlXaXzXzXOXI.l...O.o.' *.o.@.' $.=.",
"p G 7.8.[ %.] ] -.+.+.7.q.2.....o.' ' ' @.@.o.[ o.4.B.'.<XvXjXZXDXDXxXlXxXNXFXZXiXgXDXbXVXDXgXlXaX0X=XD.I.U e.o.*.[ $.o.@.[ $.r.",
"i S 7.+.` [ ]  .' #.7.<.9. .#.+.o.o.*.o.@.@.o.' @.z.'.:XtXDXZXDXGXBXaXsXDXVXFXDXgXxXxXuXZXZXgX0X8X,XL.G.B.6.' o.o.[ o.o.' ' &.;.",
"i D 2.-.' @.' @... .@.7. ...@...o.o.o.[ o.o.o.@.x.! :XrXlXjXjXiXdXdXlXjXAXnXDXxXNXNXDXDXZXuXyXtX+XV Q /.g.{ #.' o.o.@.@.[ [ *.i.",
"i D 2.] ' @...o.o.@. . .' o.@.@.X.o.o.o.[ o.o.<.l.Q *XiXkXjXZXDXsXdXlXhXSXFXDX0XcXGXsXaXvXvX0X*XV E z.6.{  .e.' o.@. .@.[ ] *.>.",
"i D 2.$.' -.o.@.o.'  .@.@.@.@.+.7.7.@. .[ *.o. .l.Z =XbXMXSXSXVXNXlXiXMXAXSX&X}.H.H.H.H.J.J.D.A.T l.k.<. .[ o.*.o.o.@.@. .$.*.i.",
"i D 2.*.' ..@.o.o.@.@. .@.' @.+.7.7.2.' [ [ o.2.l.F.=XNXmXmXmXVXNXbXhXMXAXpX Xw e 7 w w 7 6 C N B.j.,.| -.o.' *.o.@... .' ] *.;.",
"i D 2.[ ' @.@.@.o.o. . .@.[ @.@.8.8. . . .[ [ 8.l.Q *XdXaXsXsXsXVXAXAXZXjX=XU.A ) H I U U U U c.6.2. .[ o.o.o.o.o...@.@. .] *.w.",
"i D 2.%.' @...@.o.[  .@.@.' @.@.@.' ] %.[ [ @.6.l.Q *XfXlXaXfXdXNXbXFXiXsX,X~.v.o.o.' o.7.0.+.+. .` $.o.' *.O...@.@.@. . .$.*.:.",
"i D 2.$.' @...o.o.@.+. .@.o.@...o.o.[ [ [ [ 8.4.m.Z =XdXxXjXsXsXdXaXBXsXBX<XW.6. .o.@.] Y <.8. .e.o.' o.o.o.O.O...@. .@.[ [ -.i.",
"i D 2.[ ' @...@.o. .+. .' o.@.o.o.o.[ [ [ '  .j.d.F.=XcXZXjXbXZXaX0XcXdXBX-XU.z.8.' '  .2.1. .[ ' *.o.o.o.o.o.o...@. . .[ $.*.=.",
"i D 2.$.' @.@.@.o.@. . .@.@.@...O.o.o.o.[ $.] 2.l.A ,XuXhXSXSXnXjXkXuXFXVX4XU.N.<.' [  .]  .$.[ o.o.o.@.o.....+.@.+.@.' [ [ $.r.",
"i D 2.$.' @...o.o.'  .@.@.' @.o.X.O.@.@.' o. .2.z.Z ;XeXHXkXMXnXjXkXhXjXsX=XU.m.2.@.[ [ [ [ [ [ o.@.@.+.+.+.+.@.@.' @.[ [ $.*.=.",
"i D 1.[ ' +...' o.o.@.} @.o.@.@.+.+.7.<.+.7.+.4.U ( T.XX|. XXXXX X X|.|.|.K.~ ,...O.o.o.o.o.O.O.o.@. .+.+.+.+.+.@. .@.$.' $.$.=.",
"i J 2.$.' @.@.@.o.@.2.@.@.' @.@.+.7.8.7.8.+.+.#.U k 6 = * ; 6 6 ; ; : * ; 7 I 0.X.X.X.o.......+.....+.@.@.#. .+.@.@.' o.[ [ *.:.",
"i D 2.[ ' @...@.o.o. . .@.o.@.@.@.<.6.2.2...X.X.O.} K R W I I G L L P E ~ W 9.X.X.X.@.@.2.2. . . .@. .@. .@.@.@.@.[ [ o.[ $.*.:.",
"i D 2.$.[ o...@.o.'  .@.@.' @.@.@.@. .2. .@.O.o.[ %.M.~.~ / B.l./ N.m.d.B./ <...X.+.@. .|  . .[ ' @.' @.@.@.@. .[ o.[ o.[ [ -.e.",
"i D 2.[ o.o.@.@.o.@.@. .' @.@.o.o.o.[ ]  .] o.[ _ s.$X:X>X:X1X<X<X7X1X1X:X[.N.v.6.<. . .$.[ o.o.[ o.@.[ @.[ o.' o.$.[ $.[ [ -.e.",
"i n 6.*.' ..o.o.o.+. .@.@.[ [ @.o.' [ $.[  .[ | s.! ;X5XvXeXxXsXCXdXwX6X7X:Xf.s.6. . .' [ ' o.o.o.[ [ @.[ @.[ o.o.[ ' *.[ o.e.e.",
"g K 3.@.o.O.........7.@. .[  . .@.@.[ o.@.@.[ ] j.P.=X0XzXeXlXxXGXiX0XwXfX;XR.5.6.2.@...@.@.@.o.$.[ o.[ @.@.@.@.@.' ' o.' [ -.e.",
"9 D 6. .@.*.O.O.X.#.+.@.[ [  .2.2.' o.o.+.+.[ ] s.Z =XBXGXiXDXbXMXiXvXcXdX,XW.1. .@.+.....@. .@.' [ [ @.@.' @...#.@.@.o.o.*.>.>.",
"p G  .' } @.' } +...+.@.[ $. . .@.@.o.o.@.+.' q.m.F.wXCXZXMXAXGXFXFXyXyXCX4X!.b.2. .o.o.o.o.[ [  .@.@.o.o.o.' o.' } ..@.' o.*.>.",
"p S ] [ @.@.} #...o.@.o.o.o.[ ' [ [ *.[ @.@.] 2.B.A.4XBXFXGXAXnXnXAXsXsXVX=XW.a.6.2.o.o.o.o.o.o.@. .@.[ o.o.o.o.#. . .@.-.' o.r.",
"9 F 2.$.[ ` ` $.o.[ @.@.' @.o.o.@.[ o.o.@.@.$.1.d.F.=XfXaXcXhXSXVXFXiXaXcX-X!.s.5.2.+.+.o.o.o.o.@.' @.@.o.' @.@.@.[ ' ' [ $.%.-.",
"9 K 2.] ] %. .` $.[ [ @.@...o.o.@.' o.o.+. .[ 1.s.P.@X6X6X6X5XeX9XwX6X7XwX@X^.a.1.<.+.@...o...' o.o.o.o.@.@.@. .{  . . .]  .-.w.",
"0 J <.] | 1.,.q.[ ] [ @...o.o.o. .7.@.@.7.7.@. .j.j & % X % * X X * % % o - n q. .@.@...o.o.@.' o.o.o.o.' @.8.7.9.6.,.2. .] %.w.",
"0 J k.2.S y a I 2.] [ @.+.....O.7.2.+.+.7.+.o.[ 2.P v M N c c M M c j c c T 5.] ' o.o...@.@.@.@.[ o.*.[ @.[ 6.4.^ s 4 D 5.1.&.i.",
"p J z.k $ .   O W v. .` 8.+...+.8. .@...+.o.o.o.[  .6.k.j.5.6.h.b.l.j.z.l.h. .o.o.o.X.....@.2.7.8.8.o.' o.@.h.^ 3 O $   9 k.%.;.",
"9 D z.y # @ = . v 3.2.[ @.@.#.#.@. .' @.X.o.O.o.o.'  . . .@. .+. . .+.8.4.7.o.o.o...O.....@.@.2.2.@.@.[ *.@.3.W $ 1 1 O & g.&.i.",
"a D g.a 5 e e & k 1.%.[ [ ' #.} '  .@.[ +.@.o.o.o.o.@.@...X.#.X...X.X...+...o.o.O.O.o.o.@.' [  . .@.[ o.$.[ ,.I 3 q 8 3 2 ) ] =.",
"y D l.F j 3 4 y I q.2.[ *.o.@.' %.%. . .@.#.@.@...*.o.+...#.X.#.O.O.O.X.O.o.*.o.*.o.O.o.o.*.%.[ @.o.[ [ $.*.2.g.k 9 5 9 n _ &.r.",
"y E b.1.) n n _ | %.` ' [ ' [ [ ] ] [ [ ' } '  .' ] [ [ ..' ..X.....@.' ' [  .[ ' ' [ ' [ [ ] [ [ [ [ ` ` $.| 1.v.P F F _ _ &.i.",
"5 N s.l.z.n.1.5.1.6.3.v.%.1.6.v.6.1.6.6.6.k.z.z.k.6.q.6.6.6.x.4.0.9.x.6.6.k.j.z.h.k.k.9.6.6.j.4.6.8.9.q.2.6.5.j.g.z.) g.j.n.v.v.",
"r 6 M c 0 g h h f f d h s p b d s s f l l l x x z z a a f f d d d s f f f f z z l l l d d d l l b 0 b d d f s a f v z z d l f ~ ",
"#X@ # # + + & # $ $ # $ $ $ $ O # # # # $ # + + + + + + + # # $ # # + + + + + + + # $ # $ # $ $ 1 $ O $ # # # # # o O + # O 3 $X"
};
