/* XPM */
static char *c7a1142dbcce4701cad20e5ae1f5e558dSSgdQvhRSXEzs5O[] = {
/* columns rows colors chars-per-pixel */
"64 64 138 2 ",
"   c #191401",
".  c #1E1906",
"X  c #221D0A",
"o  c #26210E",
"O  c #28230F",
"+  c #2A2512",
"@  c #2E2916",
"#  c #302B17",
"$  c #322D1A",
"%  c #36311D",
"&  c #38331F",
"*  c #3A3522",
"=  c #3E3925",
"-  c #3F3929",
";  c #403B27",
":  c #423D2A",
">  c #46412D",
",  c #48432F",
"<  c #4A4532",
"1  c #4E4935",
"2  c #4E4838",
"3  c #504B37",
"4  c #534E3A",
"5  c #56513D",
"6  c #58533F",
"7  c #565040",
"8  c #5B5542",
"9  c #5E5945",
"0  c #5F5949",
"q  c #605B47",
"w  c #625D4A",
"e  c #66614D",
"r  c #68634F",
"t  c #666050",
"y  c #6A6552",
"u  c #6E6955",
"i  c #6F6959",
"p  c #706B57",
"a  c #726D5A",
"s  c #76715D",
"d  c #78735F",
"f  c #767060",
"g  c #7A7562",
"h  c #7E7965",
"j  c #7E7868",
"k  c #807B67",
"l  c #827D6A",
"z  c #86816D",
"x  c #88836F",
"c  c #878171",
"v  c #8B8673",
"b  c #8B8672",
"n  c #8A8571",
"m  c #8C8773",
"M  c #8A8474",
"N  c #8B8575",
"B  c #8C8774",
"V  c #8C8676",
"C  c #8D8777",
"Z  c #8A8572",
"A  c #8D8874",
"S  c #8D8875",
"D  c #8E8975",
"F  c #8E8976",
"G  c #8F8A76",
"H  c #8E8975",
"J  c #8E8878",
"K  c #8F8979",
"L  c #908B77",
"P  c #908B77",
"I  c #908A7A",
"U  c #918B7B",
"Y  c #918C78",
"T  c #918C79",
"R  c #928D79",
"E  c #928D7A",
"W  c #938E7A",
"Q  c #938E7B",
"!  c #948F7B",
"~  c #928C7C",
"^  c #948F7C",
"/  c #948E7E",
"(  c #958F7F",
")  c #928D7A",
"_  c #95907C",
"`  c #95907D",
"'  c #96917D",
"]  c #96917E",
"[  c #97927E",
"{  c #97927F",
"}  c #96917D",
"|  c #98937F",
" . c #98937F",
".. c #969080",
"X. c #979181",
"o. c #969080",
"O. c #989380",
"+. c #999480",
"@. c #9A9581",
"#. c #9B9682",
"$. c #9B9683",
"%. c #9C9783",
"&. c #9A9582",
"*. c #9D9884",
"=. c #9D9885",
"-. c #9E9985",
";. c #9E9986",
":. c #9F9A86",
">. c #9F9A87",
",. c #9E9985",
"<. c #9E9888",
"1. c #A09B87",
"2. c #A29D89",
"3. c #A29D8A",
"4. c #A39E8A",
"5. c #A49F8B",
"6. c #A29D89",
"7. c #A5A08C",
"8. c #A6A18D",
"9. c #A6A18E",
"0. c #A8A38F",
"q. c #A8A38F",
"w. c #A7A191",
"e. c #A9A490",
"r. c #A9A491",
"t. c #ABA693",
"y. c #ACA793",
"u. c #AAA592",
"i. c #ADA894",
"p. c #AEA995",
"a. c #B0AB97",
"s. c #B2AD9A",
"d. c #B6B19D",
"f. c #B8B39F",
"g. c #BCB7A3",
"h. c #BAB5A2",
"j. c #BEB9A5",
"k. c #C8C3AF",
/* pixels */
"k h k h g d d h = n n n n _ ' #.%.A p d m A k 6 r p p p s h l x x s g g k p h h : h S T F x ] @.@.x g g F x z 4 r h p y g h l x ",
"l l l h d s d h 1 x A  .P R R 2.' '  .P z s h 6 u h g u p l z k l l n h h a g s 1 z T T _ R ;._ @._ F S z h h 4 y x h y a l x l ",
"g g s a u y y u > k A G G 7.5.%. .! @.T [ m A 3 u d d u p h h g p g g y u r u u 4 j z M ] ;.r.3.%.4.%.@.H A l 5 a g s s h s d k ",
"4 3 3 < > > > > = & & # * % # # & 1 1 = * ; 8 ; 1 1 1 3 5 1 < 3 4 > * # : * % - # : : : , 1 5 4 : 6 < * > * ; # * 4 1 < 3 4 3 , ",
"P P R G A A G m x x n 4 s n #.x * x ' ! n n n B @.[ ! ! ' A x m v c a w g a u f f f s l M M o.<.4.@.r 8 y.4.-.F G *.*.*.*.*.*.! ",
"G R R R R ! R L A g A 8 k d x _ 4 @.A A n O.T $.[ :.[ n Y @.' A g N j 0 g h g k M l c M z k j z h F s 9 y.F R %.[ P A  . .H P ! ",
"n G G L R R R G s l  .6 a x l A , Y Y A n A n F x ! A l x ! A l f C f 7 j j j c l j z c c M l z s x s q 1.x x z x  .W P F !  .x ",
"x m G G L P G x z x x 4 y n z -., h l l l z F n ' @.[ ! [ ' x k c v t 7 g j a l o.o.o.K S o.o.M z A u 6 l h x h x l z  . .x G H ",
"x h x h A k z b A h x 1 r g A z > g p g a j j z x x C c l c l k j f i - i f v o.c J C J g V l o.H H y 3 a a g a g h h a g k h H ",
"h z x z k z z h k l R 4 1 6 h P 1 i u g s g h z c l l l l l j a f c i % 2 g M j c c j j l o.J M x k r 9 k u h k l l z z P z l s ",
"9 4 ; 1 1 5 5 1 6 1 4 % * , 1 3 o - : < > > 5 : < < 4 w w 8 4 8 8 4 = * * - * = + = * $ $ @ = % 5 < > = 5 4 q 3 5 8 3 > < , 8 8 ",
"x z d z k > q A x l z h h h y q < y h h h h f * + : 8 w e 9 w w t u t t w q > . y r.>.K z g v v h y P  .z G 5.a > h *.x k x p z ",
"[ R  . .i.O 9 x p p s g g k h l g g g r u g c 1 0 c ' X.] ! O.! v o.O.v B T h $ 7 t.G z v v z z s G x k W h h e.= k.l *.[ z e.*.",
"_ A A x q.+ y h g p e y p s p u i e 0 e u i d < s #.R n m M M h c g l x G l h * 8 =.g k c C z z k k z g k x x W : g.x G  .5.! G ",
"l A n x k O z k r y a p a p d h y 0 5 8 e y i 1 g #.n c K M K l l l T n n B F @ z O.z B z v Q F ! x r > 1 g x G : e.! H W  .H l ",
"x A l  .y & P u p p p p d p d s 9 e 9 0 y u u , i ` G _ $./ 1.3.O.O.>.[ z F G # 3.z s z z k [ z x x x d s l d z =  .e. .R z ! x ",
"R n x G A 5 l y u z s g s d p g a 9 y t 0 t i - e P x 1.&.C C l l o.n F b x k ; r.z z $.! x P b P s x s h g n B > z 7.^ n z z F ",
"P  .n n G ; A s g h h g s l k d a u f a y y w 2 9  .! R C i w g j l C F B l 1 o <.v n F n x x k k x x g z O.O.l = a ] &.&.S l z ",
"r w q 3 6 # 1 > :   % & + % # # * - @ @ $ * $ $ O # @ @ X X X X X X . X X o . & 2 2 > * & ; = $ o & X $ $ $ : , : 1 < , 1 1 6 u ",
"#.#.:.1.%.q.' 7.1.5 G 7.[ [  .#.V z $ 6 c X.o.l z p k z g J %.O.$.o.> p q.q.q.2.3.t.>.n m ! W m ;.l @ s o.o.z z v F Q o.@.^ L ! ",
"[ d.q.h.i.a.s.f.s.8 9.q.' -.2.'  .i.> z i.a.d.w.a.y. . . .! x P o.h.p Q f.P  .! =.9.=.L _ _ W  .O.5., F Q B B B ! ] P F R ^ ] ] ",
"z x G A G A P A p., G -.x n b G P a.> P / c +.#. ._ _ A P x A b z O.9 y 2.x z k B o.^ ^  .R P _ =.r.; B n B B B x m F x x b x z ",
"z y x l n #.P P #.$ s *.' G G -. .y.% x H R G n x x A x s r P m x x 4 8 q. .l k x H L ^ _ P m W ;.O.# c z l c B b x z k h k z l ",
"z b z :.n A _ n _ = d #.G G h h b P $ x z P z b z P k k R k A P P x 4 4 q.P A A x m H m x x x x z B $ B z l z z z k z x z z x z ",
"A A P _ b  .b P A = r 2._ x l x b d & d b b z z z k z z l x W A x W 1 1 5.! P l ! A x h z P k z n g * g z l z v x h z z x k m k ",
"z P _ _ x x x h u > u G k x x h b z , z P n b ' b z x x m L P A m l 1 3  .x x m Q L P x H R m ' o.n : g o.F z T R x z z z z H H ",
" .G x n x h z d 9 ; w d r y d b  .x > p n A c N W P x x G Y R ( x e : 4 P s s H o.^ o.F R P x R T n > r T v n o.b x F m x b z x ",
"u r s q r u r 8 q = , 9 9 6 6 y q e & , 4 4 4 4 > , > > 4 4 3 8 4 4 , $ 6 r q 6 w u y y a u 9 r a y ; 3 u w w e q 8 9 5 1 6 5 u ",
"r > y p u > O 5 , r k p 4 , 4 9 , q 3 6 e 6 4 * = > < 1 8 8 4 4 < 7 7 * < q q , + < 2 < < * $ % $ % % - * @ ; , ; = q 8 6 q 1 9 ",
"h d %.s s d , u [ p.d.7.#.1.-.G z b z z R R k < e r w r a a s f l p u d h u r h $ f ~ F F v F >.O.a 8 7 9 s z k r 4 k u p k h m ",
"p r p 8 r s , x A A b b x x n G z z x z d g k 2 r q q w w i a f y i r w q 9 8 q - U t.X.U V U o.O.t.j.f.1.] n x q ; l u p g s h ",
"l d a r u w >  .' G x R G n G G P p a a g h l > e q r p i a f i u g p u u 9 9 q % U 3.F V F U v F =.$.F S O.b ] s > x r u s d h ",
"g h s a h k 3 A z W A ' '  .' P  .H s k x m x 3 9 9 a p a p g h c k h g g g s s & W 8.k P P k [ ! P H ! ] H  .P p 6 y h u p d k ",
"x l g d d d 1 x x b x P P b b ' H _ H P x l h 3 6 d w w y h d d s g g g a u r e >  .q.x x x x x x R H x W ! x ! r ; P s d p y z ",
"a u r u y u 5 l l z A P P A P R H | W ! n z l 6 y y 9 5 6 6 a r r r e q 8 8 w r : s s y e p k a a u a p q u r r 6 & ! p a p r h ",
", = & & # & $ , & : , & * < 1 > & = & = = = : @ + : * # # % & ; ; : : ; & @ + @ $ $ @ # # @ . X X @ @ O @ X # & = % 4 3 3 4 3 3 ",
"P P A n z W R A x z k e q l A z x m R $. . .i.s.d.a.5.R + ! R x l x F _ @.@.@._ W P A x G x 3 e h y z ! k 9 y.H x F l ] F ! *.H ",
"z A A H H  . .z ' x x a q z l l z z x H P H W *.H _ _ _ = a.H P  ._ R T T T F x P W  .h z W 5 k l z x P P 3 2.P P F P R !  . .F ",
"b ' P W P b R k b b b h 9 z h h H H H H _ _ H n  .l  .%.* | P m l x S _ @._ S z P  .W g g P 6 h l h x G z 1 2.x H z P H W R P P ",
"l b z b n l ' P x P A p > x z z s x R m m P A H R 5.$.5.& P g x l l z z x S x z m x l l l m 5 y x  .P k z 5 k k l z h x A x P x ",
"x A g A z A l k k z d h ; p k h k g l d h n k _ 4.e.4.W & a g a a h h z x h l h l z x d k x 3 w h d p a h > h p d r x z x z b h ",
"h x x k k k x l h k g p : q p a z l z h l n x H W P | F * x a h l s x s d F l z g h l k x z 4 6 3 h x P h 4 h a h F p d k z k z ",
"4 6 ; , : > , 3 > : , % X + : > : : : & $ % ; $ = = 6 : + : % ; # % # % & % < 3 1 > = = : : @ # % , & , % # 1 > ; , ; 1 4 1 1 5 ",
"n A a h e X 6 a u u d a p q 6 1 4 3 > < 6 q r $ 9 W p d d d w x F b y g g % s *.k d a h h g g s a r 3 h z H b d u @  .k g k d F ",
"_ H [ W p.+ 8.p.A z a a a a a a a s d h x n _ 6 8.Q $.$.L z d.O. .A 1.2.a.& 4 P h d a g g d l k x x k x a y h l x , y.*.R g a.! ",
"' b x A e.# q.z a d h x l x k z h g g u p a x 4 | $.v P T 3.L E H x x x 2.# y A h d s a a p k k d a p r r a g p x ; g.H x 2.! P ",
"h n x  .h $  .x h k h z h l l h h r 8 3 e s l , l } ` v O.F n k h F h A b @ A s y a h a g s g s s d a 5 % < r k a & 9.H H  .z x ",
"H x x P u % P k s p a d h k h u u a h y p y d 6 d i.` O.n g T n x z x F y ;  .s s a d w p d h k z g s s y d p d s & ] @.P h F H ",
"R n l n b $ H g u g g r a u y u r a e u u p h 4 q 2.Q } v j l F x x x b W 3 ' d d l x d h s h d h s s y i i i f f $ n v v z z F ",
"R R P A l $ h d p r p q e 8 6 q 9 q q u r u a 4 > 2.$.Q n c j F W b z x x 4 b d k l k d x l k P l l a a j i l n s * e o.o.o.s $.",
"w w 8 4 3   ; : = # : +   + + $ $ # & ; * = ; # * + o $ > = @ > % @ @ % & X , : ; & & # O * # O % - > * > - * , 1 * * 8 1 q > y ",
" . .W P W k x H 1.$.:.s = x $.9.x h x z k z h h l Q -.u @ k v f a u s k g s l x x d k h % H ! s 0 w c 8 7 3.T w.=.r.r.>.$.q.&.&.",
"'  . .' [ ' P  .] 9.s.>.1 r.7.O.-.! 1.%.[ #.! -.1.O.T O.$ a.T v  . .q.y. .e. . . . . .e.& a.a.P X.o.s.j 7 h.r.r.t.:.:.$.7.$.1.L ",
"b b b x H W z P E ] E ^ * $.$.F z z P Q P ! A ! x ^ =.n > r.l T P W W  .P  . . .H  .'  .& ! P ! o.X.w.c 4 w.>.B @.n z S l z L z ",
"x l l g x n k k B F x ^ : F $.F z z A F Q P x L O.$.a.h 3 o.g k b W W W H W H P ' P d k # h  . .w.w.w.f 7 E B n z n L ! l z z k ",
"l k A l k g g z E ] T c $ s O.^ P P m x A m z z x k F l * =.s a a l x b x H H x l s a l = h  .! l l $.7 8 O.k n m l x h n l z n ",
"x A R T F F E E O.F E z + h >.E } v P A g F z x z n S y # -.d s a a g l x l s p k p p x # d  .P m z  ., 4  .z x z l z z l k k k ",
"H R T A T ` ` B c Q z y * j F x v v $.P v Q ! P L n &.h *  .x u s g g s u u u a p p d d + p ! k x P  .q ,  .x x S n x x x x x A ",
"R ! ] [ ` T ` $.Q F h 0 * s z a l F $.^  .A #.! S v ! d & z  .' b b b R b k g k p d p q + u x s h P P d ; ! z z S n x x x x x H ",
"u a a r 9 9 q q 9 e y 8 % 1 t t e u u p a 9 u e 9 y u 5 # * ; , 3 , : = > 3 3 , , 1 ; & + , q 3 , 9 q 6 ; r r r r e e y u y r r ",
"e u e 5 8 u y 4 * 5 4 9 g l i t 9 u 8 e 8 7 8 ; 8 9 8 w r e 9 8 9 q 6 3 6 a u 8 & 4 6 r s d d r q p r 6 6 6 1 & r q q r u u r e ",
"k h d h l z z z % s v F Q >.O.E g L h k a k g , n y y g d h b k g g g l l k g g ; p k A  . . .x d A h d h x d 3 h p u s h k k k ",
"k a a h a 8 0 a > d F ] z O.>.F n x l l s x z 1 s y u s p d l k l s p d s q r d : k x A  . . .! x x k k s z h , p p r p s d k k ",
"h k h s u u u y = j z Q F ^ F $.L a g g g s k 3 y s u u k x s l s k k s p p y e ; k A P A x !  .P p d h s s x 1 u u p s d h k k "
};
