/* XPM */
static char *e000b35e2be9473698958139823997d1JqKo88O3Z7H5sS8Z[] = {
/* columns rows colors chars-per-pixel */
"64 64 187 2 ",
"   c #1D1D1F",
".  c #22231D",
"X  c #292B1F",
"o  c #282C15",
"O  c #363A1F",
"+  c #252625",
"@  c #2A2B25",
"#  c #26252B",
"$  c #2C2C2B",
"%  c #2F3221",
"&  c #2F302B",
"*  c #323525",
"=  c #353924",
"-  c #393C25",
";  c #32332B",
":  c #37392C",
">  c #3A3D2B",
",  c #282631",
"<  c #2D2D32",
"1  c #2F2D38",
"2  c #302F35",
"3  c #312F3B",
"4  c #333334",
"5  c #373831",
"6  c #3A3C34",
"7  c #34333A",
"8  c #38373C",
"9  c #3C3C3B",
"0  c #3E4226",
"q  c #3E412C",
"w  c #3E4034",
"e  c #3F4039",
"r  c #41452C",
"t  c #414434",
"y  c #464A34",
"u  c #42433D",
"i  c #46493B",
"p  c #494C3C",
"a  c #484C35",
"s  c #4E5237",
"d  c #4E513E",
"f  c #3E3D43",
"g  c #353340",
"h  c #403F45",
"j  c #413F4D",
"k  c #434344",
"l  c #474843",
"z  c #4B4C44",
"x  c #45444B",
"c  c #48474D",
"v  c #4B4B4C",
"b  c #4F5144",
"n  c #535545",
"m  c #575A47",
"M  c #5A5F41",
"N  c #53544C",
"B  c #56584B",
"V  c #595C4D",
"C  c #464352",
"Z  c #484653",
"A  c #4D4B53",
"S  c #484558",
"D  c #4D4B5A",
"F  c #504F56",
"G  c #504E5C",
"H  c #535354",
"J  c #575852",
"K  c #5B5C55",
"L  c #54535C",
"P  c #58575E",
"I  c #5B5B5B",
"U  c #5E6248",
"Y  c #5E6053",
"T  c #5F6059",
"R  c #636848",
"E  c #626553",
"W  c #62635C",
"Q  c #6A6D5C",
"!  c #524F61",
"~  c #565462",
"^  c #595663",
"/  c #5C5B63",
"(  c #5E5C69",
")  c #605F65",
"_  c #605E6B",
"`  c #625E72",
"'  c #636364",
"]  c #676863",
"[  c #696A65",
"{  c #64636B",
"}  c #68676C",
"|  c #6B6B6B",
" . c #6E7063",
".. c #6F706A",
"X. c #72736D",
"o. c #797B6E",
"O. c #666473",
"+. c #686674",
"@. c #6C6B74",
"#. c #6A6778",
"$. c #6E6B7B",
"%. c #706F76",
"&. c #706E7C",
"*. c #737375",
"=. c #777873",
"-. c #7A7B74",
";. c #74737C",
":. c #78777D",
">. c #7B7B7D",
",. c #7E8074",
"<. c #7F807B",
"1. c #808277",
"2. c #82837D",
"3. c #86887D",
"4. c #888A7D",
"5. c #8D9178",
"6. c #716E81",
"7. c #767482",
"8. c #797783",
"9. c #7C7B84",
"0. c #777489",
"q. c #79768A",
"w. c #7E7C8A",
"e. c #7F7B91",
"r. c #807F86",
"t. c #807E8C",
"y. c #817E91",
"u. c #838384",
"i. c #878883",
"p. c #8A8B85",
"a. c #84838C",
"s. c #88878E",
"d. c #8B8A8C",
"f. c #8E9083",
"g. c #8F9089",
"h. c #929582",
"j. c #92938C",
"k. c #858393",
"l. c #888694",
"z. c #8C8A94",
"x. c #868399",
"c. c #898699",
"v. c #8D8A9B",
"b. c #908F96",
"n. c #908E9C",
"m. c #929294",
"M. c #979890",
"N. c #999A95",
"B. c #929198",
"V. c #949399",
"C. c #96959B",
"Z. c #94929B",
"A. c #98979D",
"S. c #9A9A9E",
"D. c #9E9E9D",
"F. c #9B9A9C",
"G. c #9FA09A",
"H. c #A3A49E",
"J. c #A8AA9F",
"K. c #8E8BA1",
"L. c #918EA3",
"P. c #9592A2",
"I. c #9997A4",
"U. c #9B9AA0",
"Y. c #9D9CA3",
"T. c #9692A9",
"R. c #9A97AC",
"E. c #9E9BA8",
"W. c #A09FA5",
"Q. c #A3A3A3",
"!. c #A7A8A3",
"~. c #AAABA4",
"^. c #A5A4AB",
"/. c #A8A7AC",
"(. c #A9A9A9",
"). c #ABAAAB",
"_. c #AFB0AB",
"`. c #B0B2A7",
"'. c #B1B1AF",
"]. c #ADACB2",
"[. c #B3B2B6",
"{. c #B2B2B3",
"}. c #B7B8B2",
"|. c #BABAB6",
" X c #B6B5B9",
".X c #BABABB",
"XX c #BCBBC1",
/* pixels */
"N p.p.i.p.1.i.p.>.2.4.3.3.4.4.W T i.s.a.s.s.s.a.a.r.a.d.s.u.p.) K d.p.i.d.i.s.a.k.s.s.u.3.5.M M W s.s.d.%.) r.b.u.s.s.s.u.d.u.H ",
"N Q.'.C.d.m.H.N.Q.G.H.D.).|.~.] H (.[.F.W.N.b.V.b.N.V.U.].|./.T ) (.'.G.j.d.F.N.A.I.U.D.`.5.R s W XX[.s.d.V.U.a.m.b.b.S.].|.D.P ",
"k 8.u.9.r.9.a.9.a.s.b.z.A.S.s.x F >.a.r.r.:.r.a.r.a.a.r.a.m.d.k v <.r.i.u.>.8.r.8.s.a.u.j.E r = k ;.r.r.9.&.8.} / F F ) ;.z.r.x ",
"G O.+.t.n.x.t.k.y.y.v.n.v.a.w.L h H | r.s.l.z.k.l.z.z.s.r.>.r.L F @.%.r.d.u.r.t.q.a.r.2.i.V q t A %.9.l.s.r.l.;.@._ ~ L L | ;.F ",
"C O.7.w.x.x.x.k.x.q.w.k.c.x.k.{ @.n.b.t.k.s.y.n.z.t.t.z.z.r.r.I Z &.t.t.s.s.s.t.t.8.;.9.2.[ 5 6 H a.t.t.n.l.y.k.t.7.#.` _ %.8.I ",
"C +.a.a.a.x.c.k.x.y.y.w.t.l.v.{ x %.t.z.z.k.y.y.c.y.c.l.l.t.s._ D #.l.c.l.s.s.c.l.t.t.r.:.*.9 u P ;.9.l.l.w.t.x.y.t.8.&.%.8.t._ ",
"A ' 9.s.z.l.a.l.k.l.l.t.8.9.a.} / ) ;.n.y.y.K.y.c.K.c.y.t.8.s._ ! ` q.v.v.k.t.c.l.l.l.r.;.*.) P F @.k.l.y.x.n.y.c.v.l.t.&.&.8.) ",
"v ' u.s.a.a.a.l.z.t.a.l.t.:.r.} v ;.t.t.c.c.K.y.v.y.x.v.c.r.t._ S 6.x.l.y.n.c.t.k.k.k.t.s.t.a.{ G 8.t.k.n.y.y.K.l.l.l.y.7.r.t.) ",
"A K r.a.a.s.a.v.t.l.a.l.a.;.u.} v %.r.t.c.c.K.y.y.y.c.c.t.#.@.^ S #.q.K.K.y.x.c.k.l.t.l.a.8.v.^ ~ &.t.l.y.l.L.x.y.c.y.t.t.:.r.I ",
"x { d.z.a.v.l.y.v.v.k.t.9.;.r.) F %.8.s.l.y.y.c.K.L.c.7.t.b.b.[ D q.y.y.l.l.L.y.t.l.k.t.q.7.k.G ~ &.y.v.x.y.x.x.v.l.t.s.r.{ >./ ",
"x _ 8.v.L.c.x.x.y.c.x.y.k.r.a.I v } r.b.n.c.c.c.y.y.t.r.s.r.r.' c ;.8.l.L.c.c.l.k.l.k.s.y.8.y.( D $.t.v.L.l.l.v.y.l.l.>.[ K 3.K ",
"G &.7.n.R.L.L.K.c.c.v.x.z.k.r.F h T %.d.I.P.n.v.y.c.n.s.s.r.<.H l ..r.b.R.n.v.n.n.l.a.l.b.8.t._ L 7.t.z.R.L.v.l.y.s.s.*.A u 2.B ",
"D a.t.l.L.R.L.v.K.c.l.9.a.s.9.N u W *.a.n.n.I.n.T.v.s.t.u.<.%.u i o.p.s.b.I.T.L.n.l.r.r.a.8.9.^ C $.8.k.P.I.P.n.A.a.i.i.W > Q V ",
"v 9.9.t.a.l.w.T.t.w.9.;.>.-.| l e W <.u.s.s.l.t.c.t.s.r.>.W T w y E ,.i.s.l.y.y.r.t.r.%.>.t.t._ ( r.k.a.a.t.t.t.t.>.>.-.m * y r ",
"A ' P [ } ) L m.{ I [ I V m d = 5 N T ] | ) ^ L / &.r.| K H K q 0 r m [ [ ^ ~ ^ ~ _ ) L ) ) %.) G ^ ) { O.#.8.8.T } [ Y p a r r ",
"i i @ $ 4 4   / & $ 6 ; = > y r - : X & 4 < 2 1 2 # 3 9 & . 5 q r O > 5 + 2 g 1 2 < 8 4 4 + 4 h A f < 7 3 < 7 2 $ 4 & = * - o r ",
"n 4.j.j.p.p.C.d.d.d.j.4.E r - r - p  .N.p.m.l.C.n.z.b.b.g.g.f.d t h.B W X.I m.b.g.b.j.g.p.g.g.J | V.b.z.V.s.b.b.b.d.b.X.J W -.N ",
"B ~._.N.F.z.z.m.d.z.j.M.o.V y * - a n p.b.m.b.Z.I.n.V.F.).}.!.N z }.!.| u.C.d.a.a.2.s.F.}.|.!.B ) (.].m.d.z.F.b.S.F.D.F.S.Q.C.K ",
"k %.>.a.l.8.t.t.l.s.a.d.2.[ B 6 p V z <.i.r.9.7.t.r.r.r.d.M.p.6 x } a.>.u.a.O.$._ L D L } >.r.h A r.a.>.r.>.a.r.s.s.b.d.F.m.2.k ",
"D L { t.l.x.n.c.c.l.t.t.a.r.*.K z ....r.a.s.t.t.8.t.s.r.r.<.<.v c ) 7.l.v.l.c.q.#.O.( ~ ~ O.8.G P +.@.t.n.s.t.k.r.s.d.s.s.9.*.v ",
"` L.n.k.c.c.y.x.x.c.l.c.z.l.t.{ c | u.a.a.b.k.l.t.8.8.8.r.r.t./ C t.t.k.l.y.c.y.y.q.6.#.O.&.y.^ G @.8.t.l.k.y.a.t.t.a.a.m.z.u./ ",
"j #.l.y.y.k.l.c.t.l.l.l.k.t.t.+.F _ r.k.a.k.9.k.n.k.t.t.t.;.r.) P &.a.l.x.y.y.K.K.y.q.6.+.&.k.( G &.l.x.k.c.v.c.k.w.w.9.a.u.r./ ",
"L ( t.n.a.r.a.t.z.z.a.a.a.k.t.&.D _ q.c.n.x.v.c.y.l.t.t.8.#.6.^ L ) 9.k.9.l.n.q.y.l.c.y.8.&.t.^ ~ O.w.y.c.c.l.x.n.l.v.t.;.:.u.) ",
"C O.t.a.s.z.a.s.s.a.t.s.l.a.w.{ S #.t.c.y.t.L.t.l.v.c.y.c.y.c.&.A ;.>.z.n.t.k.z.v.k.y.t.8.>.d./ ~ $.l.x.x.c.x.c.x.y.v.l.8.8.a./ ",
"D _ l.a.a.a.z.s.s.r.s.s.t.@.$.( j #.y.c.y.c.l.y.c.t.c.y.y.y.l._ A } 9.n.a.k.z.k.k.l.k.r.a.;.u./ Z 7.l.l.y.K.x.c.v.y.k.k.t.;.r.^ ",
"D _ a.k.l.k.a.a.a.n.n.9.t.Z.P.+.! #.t.k.k.l.l.l.k.c.L.c.0.&.t.~ ^ ;.9.l.t.t.k.k.l.l.l.9.9.%.9.F L +.8.v.x.x.x.x.y.x.l.t.8.8.u.L ",
"S ` y.v.L.c.v.x.y.k.k.t.t.y.x.O.F { r.l.n.l.c.k.c.t.t.y.c.c.l._ C +.q.L.L.K.x.x.x.y.v.a.a.t.z.) A ;.r.n.k.c.v.y.x.c.c.k.t.t.s.P ",
"S #.w.c.L.L.T.L.v.c.c.y.k.t.t./ h I r.b.A.n.n.n.L.y.l.z.l.8.r.O.G 0.w.K.L.T.K.L.c.x.v.k.t.r.u.F k *.:.b.I.n.n.L.v.x.y.l.l.9.r./ ",
"C $.9.l.K.L.T.L.R.v.t.a.l.a.r.W e T 2.d.b.n.P.I.n.c.y.t.s.:.:.) x 6.8.x.v.P.L.L.n.l.z.a.u.r.*.l l p.u.u.A.E.l.z.n.c.y.l.z.r.a.' ",
"D :.:.t.k.l.x.t.y.t.l.z.r.] ] J t T ,.i.i.s.t.t.q.t.8.#.r.a.s.[ L w.t.a.k.l.t.;.r.r.2.>.=.X.W i i 2.3.>.i.a.8.I.8.9.7.@.;.*.:.I ",
"z ] H ) ' / ^ P G | >.[ n d m - r d V W W ) L G ! ` +.^ L H [ ) F I H ' ' ;.r.>.K I K V m a > - r t z [ ' F A W.^ +._ ^ / P %./ ",
"t i . ; 4 $ # 4 2 @ & ; ; * t - t : X @ & 3 3 g 3 3 3 7 8 + 9 k x 9 $ 9 5 6 6 : @ : 6 > r > O y t @ ; & @ 7 < A , 3 3 < 2 + h k ",
"n p.p.i.d.<.i.i.p.2.p.3.X.n B i k N.{._.].(.].^.^.W.E.(.].].).| [ 3.p.p.X.K W V V B V B n d V a i z 2.~.(.).].^.W.^.W.Q.].[.W.K ",
"A !.'.C.g.m.Y.N.F.F.Y.H.).!.p.N H B.S.z.s.a.z.s.z.S.P.A.^. X^.P ' .X Xd.u.j.H.j.M.i.-.1.H.`.j.t i | d.d.u.u.a.a.z.z.z.m./.].Y.I ",
"k :.u.9.r.9.a.w.k.z.B.z.F.W.s.x x >.9.u.a.u.a.w.8.u.a.a.z.a.t.x L 6.9.a.u.9.s.d.9.d.d.u.p.d.u.v k | -.i.s.9.t.a.k.l.a.a.a.>.*.k ",
"~ { @.t.L.x.t.k.k.a.k.k.z.a.w.L x @.8.a.z.k.a.w.w.8.w.a.a.:.9./ ^ ( &.x.l.a.a.7.a.;.@.+.9.u.:.x A K } l.a.a.E.w.a.l.z.k.u.*.;.H ",
"C ` 6.y.k.c.x.x.l.y.x.x.Z.z.k.{ D @.7.a.l.k.k.z.a.8.7.7.w.w.k.( ^ y.c.k.K.c.c.n.x.w.t.a.l.w.w.{ } ].B.8.Z.k.w.k.x.a.a.a.v.s.a.' ",
"C #.y.y.x.l.k.x.y.t.t.8.w.a.k.{ C { 8.k.z.x.k.v.K.x.e.a.w.;.9.( ! $.t.y.y.q.w.v.k.a.a.w.a.k.w.^ D :.t.t.w.w.v.c.c.x.k.k.z.9.9.I ",
"D { w.l.z.l.u.l.z.z.z.w.8.>.u.@.D O.a.c.k.k.y.k.x.e.y.k.7.{ &./ ! +.l.z.t.v.n.w.k.l.l.9.9.w.u.( ~ +.t.v.v.y.y.x.k.l.z.z.k.8.a.} ",
"c { a.s.a.k.k.l.a.a.s.a.u.9.9.} A O.y.k.x.x.x.c.x.v.c.k.k.n.E.$.G @.t.a.l.l.9.z.z.k.a.r.r.9.9.{ G 6.c.y.x.c.k.c.k.c.k.a.k.w.u.^ ",
"c P a.d.z.a.a.z.l.a.a.z.a.=.a.{ C +.8.c.y.x.x.c.x.x.k.x.w.;.a.P A %.u.l.l.u.l.l.k.l.a.9.a.:.;.( ~ 6.k.c.e.k.c.y.x.k.w.a.w.;.O.~ ",
"A { a.9.a.s.z.k.z.k.a.z.9.;.u./ j ;.a.z.y.c.x.k.c.x.x.a.u.8.s.^ P ;.9.t.l.y.k.c.k.z.c.w.w.8.8.~ ! $.w.v.x.c.l.x.k.v.v.a.k.z.k.} ",
"c { w.n.I.l.k.w.x.k.c.k.k.w.c.O.A ;.7.z.P.v.x.l.x.l.k.a.w.9.i.) x +.9.c.P.v.x.x.K.x.c.x.y.y.y.( ~ 7.t.n.n.v.z.z.k.a.t.8.u.l.a.P ",
"Z +.7.l.I.n.L.L.x.x.x.x.x.y.x.O.A @.;.z.I.P.z.P.l.a.t.i.a.i.u.K H 7.t.z.R.L.v.L.K.y.y.c.x.y.y._ Z &.t.z.B.B.z.z.z.a.Z.k.a.8.a.( ",
"A s.s.t.n.P.P.n.P.K.v.x.c.x.k.O.c s.z.z.z.P.P.P.B.v.s.s.>.=.] k x @.9.a.Z.T.P.L.K.y.x.x.w.w.w.~ D 8.r.z.m.C.m.C.v.u.z.a.l.9.a./ ",
"n -.>.>.s.i.9.z.u.8.8.$.7.7.7.@.H <.u.u.9.u.9.8.8.@./ | -.3.] w z | r.u.u.a.t.8.y.y.l.8.7.9.a.( I :.:.9.9.u.9.9.s.u.a.>.9.9.a.) ",
"i B n m W I K m.} / { I ' / } @.N N u H P A x x A / } K 9 6 : t i i N T W [ >.9.^ ' { K I I | K H P v H A v v c v / } P x h P P ",
"t d t 6 t 5 . J $ $ 5 4 < $ 4 u 9 9 @ < $ 4 7 7 , 4 < 4 @ 6 ; : t * = 6 ; + 4 $ 2 $ 4 4 4 . 6 i x 4 + 9 4 4 $ $ 4 4 < 4 < $ 8 x ",
"n E n z 6 9 u.Y.Q.W.Y.D.Q.!.!...T J.!.F.Q.Y.(.E.^.P.U.Q.!.H.D.J u =.=.u I } Y.Q.S.Y.Q.Q.(.Q.D.I *.[.^.C.^.Y.Q.Q.A.U.Q.W.Q.).Q.K ",
"t p.2.I ' >.s.9.:.9.r.d.(. X~.B b N.!.g.a.u.V.v.B.^.Y.V.~.|.!.N u F.(.;.C.W.B.u.B.B.z.d.Q.{.Q.F I Y.E.b.v.u.z.V.U.U.U.F._.).m.K ",
"N ] -.u.u.r.&.{ _ ( F F ) -.2.9 u *.u.<.u.u.z.w.k.k.B.C.z.d.i.k I | *.u.9.a.;.s.8.9.8.8.a.s.u.h L 9.a.t.u.8.k.u.z.u.z.A.m.p.>.x ",
"l H X.d.s.z.z.t.;.+.( L H P } u k N ' u.z.s.k.t.u.x.u.s.A.>.| H c K ;.B.u.z.t.8.9.8.w.u.>.*.*.H G +.$.8.k.l.l.8.7.z.a.u.C.9.} H ",
"P d.s.r.l.a.k.t.k.9.;.&.@.| ;.k e F @.z.z.a.k.x.k.w.w.k.z.z.C.I I s.a.a.k.k.v.k.l.w.8.t.a.8.u.) L +.w.k.k.a.l.k.z.w.w.a.z.z.z.I ",
"x %.9.l.k.9.c.v.l.y.w.@.@.@.;.9 9 ^ u.z.k.k.k.k.e.c.w.7.k.k.a.{ G :.8.v.c.7.k.k.x.t.q.8.9.9.l.^ L $.a.l.k.x.k.c.w.c.w.;.a.a.9.' ",
"c { k.z.w.y.v.y.y.v.n.k.8.*.:.h h { u.a.a.c.x.x.K.x.v.z.8.;.a.( D +.u.v.w.k.L.x.x.l.l.w.8.8.a.( ~ @.t.k.z.c.l.x.c.x.c.a.7.7.a.^ ",
"D { t.k.v.L.q.L.c.y.y.t.9.:.r.P Z { u.k.k.x.k.v.c.x.x.x.9.w.l.( D ;.w.k.c.v.q.c.c.x.y.k.t.7.u./ G &.k.k.x.c.y.c.c.y.x.a.w.w.u.( ",
"Z O.k.y.y.x.y.c.x.k.k.k.r.8.s.P A { k.t.v.z.k.x.x.x.c.z.w.;.k.( L #.a.l.k.k.v.y.c.c.x.t.t.9.:.P H $.9.l.c.k.v.k.x.c.x.l.w.&.a.L ",
"D { t.x.c.c.l.v.l.c.l.a.;.&.a.{ A @.9.9.t.z.w.v.v.k.k.a.w.7.t.~ L +.8.k.x.x.v.c.y.l.z.8.;.:.9.' A >.8.l.w.c.x.v.c.k.w.a.w.:.a.^ ",
"Z _ 9.n.P.v.y.y.l.k.l.v.z.s.z.) H @.8.U.I.n.t.k.a.t.k.k.k.w.z.{ D @.8.z.P.x.k.e.x.a.k.a.z.d.>.c k ' >.U.B.v.t.t.x.c.k.k.t.:.a.' ",
"G @.r.l.n.P.C.n.l.k.l.a.t.9.a.} A / *.s.v.b.Y.z.n.l.a.z.z.a.u.^ L ;.9.z.P.P.Z.P.z.l.s.a.a.;.| k 9 N ;.m.m.A.E.v.z.z.k.z.z.t.i.^ ",
"h { >.s.b.V.I.z.Z.l.a.r.a.u.u.} P s.z.s.b.S.W.b.z.s.z.a.a.u.9.} k @.9.a.C.A.Z.v.z.d.z.i.u.-.| 9 k [ i.i.d.C.C.P.l.a.a.a.d.>.u.] ",
"K ;.>.r.r.:.;.} 9.:.r.9.u.9.>.+.v d.=.>.u.9.' V.a.*.} ' >.a.u.} I >.u.r.9.>.@.} 8.9.u.*.2.3.=.6 w X.=.3.p.>.' Y.l.:.{ ' >.u.>.K ",
"v P z F P I :.9.c H ' F x h P @.v K u P I P c A.A I } P c k H ' H J c H I ' :.>.v K I v k z K i t a t J I H x A.x I } P v u K ] ",
"u 9 @ ; 5 + 2 4 8 2 7 $ 7 7 8 7 v 4 & 4 $ & $ k < & 8 $ 4 7 8 8 k 5 $ 4 7 , 4 2 7 $ 4 5 5 @ 6 6 t * : ; @ < 4 k < 7 7 < 4 ; 9 e "
};
