/* XPM */
static char *_0def94d2b754ec082492e2072cfb1aeAuSnlGV61MPD2dTF[] = {
/* columns rows colors chars-per-pixel */
"64 64 2 1 ",
"  c black",
". c #D26B20",
/* pixels */
"..............  ..............  ..............  ..............  ",
"..............  ..............  ..............  ..............  ",
"..............  ..............  ..............  ..............  ",
"..............  ..............  ..............  ..............  ",
"..............  ..............  ..............  ..............  ",
"..............  ..............  ..............  ..............  ",
"                                                                ",
"                                                                ",
"......  ................  ............  ................  ......",
"......  ................  ............  ................  ......",
"......  ................  ............  ................  ......",
"......  ................  ............  ................  ......",
"......  ................  ............  ................  ......",
"......  ................  ............  ................  ......",
"                                                                ",
"                                                                ",
"..............  ..............  ..............  ..............  ",
"..............  ..............  ..............  ..............  ",
"..............  ..............  ..............  ..............  ",
"..............  ..............  ..............  ..............  ",
"..............  ..............  ..............  ..............  ",
"..............  ..............  ..............  ..............  ",
"                                                                ",
"                                                                ",
"......  ................  ............  ................  ......",
"......  ................  ............  ................  ......",
"......  ................  ............  ................  ......",
"......  ................  ............  ................  ......",
"......  ................  ............  ................  ......",
"......  ................  ............  ................  ......",
"                                                                ",
"                                                                ",
"..............  ..............  ..............  ..............  ",
"..............  ..............  ..............  ..............  ",
"..............  ..............  ..............  ..............  ",
"..............  ..............  ..............  ..............  ",
"..............  ..............  ..............  ..............  ",
"..............  ..............  ..............  ..............  ",
"                                                                ",
"                                                                ",
"......  ................  ............  ................  ......",
"......  ................  ............  ................  ......",
"......  ................  ............  ................  ......",
"......  ................  ............  ................  ......",
"......  ................  ............  ................  ......",
"......  ................  ............  ................  ......",
"                                                                ",
"                                                                ",
"..............  ..............  ..............  ..............  ",
"..............  ..............  ..............  ..............  ",
"..............  ..............  ..............  ..............  ",
"..............  ..............  ..............  ..............  ",
"..............  ..............  ..............  ..............  ",
"..............  ..............  ..............  ..............  ",
"                                                                ",
"                                                                ",
"......  ................  ............  ................  ......",
"......  ................  ............  ................  ......",
"......  ................  ............  ................  ......",
"......  ................  ............  ................  ......",
"......  ................  ............  ................  ......",
"......  ................  ............  ................  ......",
"                                                                ",
"                                                                "
};
